<svg width="587" height="297" viewBox="0 0 587 297" fill="none" xmlns="http://www.w3.org/2000/svg">
<g filter="url(#filter0_d_60_65)">
<path d="M121.297 109.625C122.547 109.625 123.453 110.688 124.016 112.812C124.016 123.875 123.109 129.406 121.297 129.406L120.453 129.688C118.516 129.688 117.547 127.719 117.547 123.781C116.734 119.219 115.547 116.938 113.984 116.938C108.547 121.375 105.828 130.25 105.828 143.562C107.141 164.312 108.859 176.625 110.984 180.5C113.547 185 116.391 187.25 119.516 187.25H120.734C125.234 187.25 128.891 182.812 131.703 173.938C132.516 173.188 133.266 172.812 133.953 172.812C135.516 172.812 136.422 173.781 136.672 175.719C136.172 179.969 133.734 184.5 129.359 189.312C125.672 191.688 122.578 192.875 120.078 192.875C111.703 192.875 106.203 186.375 103.578 173.375C101.453 160.562 100.391 150.844 100.391 144.219V143C100.391 131.188 103.109 121.531 108.547 114.031C110.359 112.219 112.453 111.312 114.828 111.312L118.109 112.156C118.109 110.844 119.172 110 121.297 109.625ZM167.891 103.812C168.828 103.812 169.734 104.719 170.609 106.531L170.328 107.938C175.766 143.875 179.578 171.25 181.766 190.062C181.141 191.812 180.172 192.688 178.859 192.688C176.672 192.688 175.359 188 174.922 178.625L173.891 171.219L168.734 171.5C165.484 171.5 160.578 171.094 154.016 170.281C149.391 186.094 146.234 194 144.547 194H144.359C142.359 193.438 141.359 192.438 141.359 191C146.422 178.625 151.922 157.438 157.859 127.438C160.422 118.188 162.766 110.719 164.891 105.031C165.766 104.219 166.766 103.812 167.891 103.812ZM155.516 164.656C158.953 165.469 162.578 165.875 166.391 165.875H171.453C172.141 165.875 172.734 165.594 173.234 165.031L166.391 119.469H166.203C164.953 121.406 163.141 128.219 160.766 139.906L155.516 164.656ZM200.141 101.844H204.828C211.016 101.844 215.172 102.938 217.297 105.125L217.859 106.906V107.188C217.859 108.75 216.891 109.625 214.953 109.812C213.078 108.25 209.328 107.469 203.703 107.469H202.766V107.844C202.766 119.406 202.891 135.438 203.141 155.938C203.453 176.438 204.422 187.781 206.047 189.969C205.422 191.719 204.359 192.594 202.859 192.594C200.234 195.406 198.641 184.656 198.078 160.344C197.516 136.031 197.234 118.531 197.234 107.844V107.469L188.891 108.031C187.328 107.344 186.547 106.375 186.547 105.125C186.547 102.938 191.078 101.844 200.141 101.844ZM227.703 101.188C229.266 101.188 230.172 102.375 230.422 104.75H230.141L230.422 105.688C232.547 105.688 238.453 105.031 248.141 103.719C249.703 104.281 250.484 105.25 250.484 106.625C250.484 108.625 246.266 109.906 237.828 110.469L229.578 111.594V115.719C229.578 118.656 230.766 130.562 233.141 151.438H245.141C246.766 151.438 247.766 152.344 248.141 154.156C248.141 156.094 246.672 157.062 243.734 157.062H233.141V157.438L232.859 176.844C232.859 181.469 233.328 184.844 234.266 186.969L252.828 185.75C254.828 186 255.828 186.875 255.828 188.375C255.828 190.375 253.641 191.375 249.266 191.375C238.016 192 232.391 192.594 232.391 193.156C230.141 193.156 228.578 189.719 227.703 182.844L227.234 175.719L227.422 154.438L223.953 115.719V112.812C223.953 105.062 225.109 101.188 227.422 101.188H227.703ZM278.797 101.375C280.547 102.062 281.422 103.062 281.422 104.375C281.422 105.812 279.641 107 276.078 107.938C269.953 112.375 266.891 123.188 266.891 140.375C266.891 161.062 270.547 175.844 277.859 184.719C279.547 186.094 280.797 186.781 281.609 186.781C285.984 186.781 288.672 180.25 289.672 167.188L290.047 163.062C289.859 160.125 289.516 158.656 289.016 158.656C286.828 159.531 283.516 161.344 279.078 164.094L277.297 164.375C276.234 164.375 275.328 163.469 274.578 161.656C274.578 160.156 276.734 158.469 281.047 156.594C284.734 154.219 287.516 153.031 289.391 153.031C292.953 153.031 295.016 155.812 295.578 161.375V161.938C295.578 177.938 292.109 187.875 285.172 191.75C283.297 191.875 282.359 192.062 282.359 192.312C273.297 192.312 266.766 181.5 262.766 159.875C261.828 153.375 261.359 147.344 261.359 141.781V139.812C261.359 120.938 265.359 108.719 273.359 103.156C276.109 101.969 277.922 101.375 278.797 101.375ZM313.672 110.938C322.047 110.938 328.797 122.656 333.922 146.094C334.609 150.969 335.078 155.969 335.328 161.094C335.328 176.281 331.297 186.531 323.234 191.844C320.047 193.031 317.578 193.625 315.828 193.625C309.203 193.625 304.797 188.312 302.609 177.688C301.547 173.625 301.016 168.906 301.016 163.531V162.031C301.016 147.469 303.516 131.938 308.516 115.438V114.5L308.141 114.219C308.828 112.031 310.672 110.938 313.672 110.938ZM314.047 116.469C309.109 130.844 306.641 146.031 306.641 162.031V162.875C306.641 176.688 308.922 184.844 313.484 187.344L315.828 188H316.766C322.266 188 326.172 183.062 328.484 173.188C329.109 170.688 329.422 167.781 329.422 164.469V159.031C329.422 143.906 325.484 130.438 317.609 118.625C316.109 117.188 314.922 116.469 314.047 116.469ZM361.016 101C366.641 101.5 370.016 106.625 371.141 116.375V120.312C370.391 128.125 366.453 135.969 359.328 143.844C360.703 146.781 363.547 156.219 367.859 172.156L375.734 190.156C374.922 191.844 373.859 192.594 372.547 192.406C370.859 192.344 368.234 187.5 364.672 177.875C362.234 173.062 359.547 164.188 356.609 151.25C355.859 149 355.266 147.844 354.828 147.781L348.547 151.062C348.672 164.75 349.234 177.656 350.234 189.781C350.109 190.781 349.328 191.688 347.891 192.5L346.953 192.406C345.203 192.281 344.328 190.344 344.328 186.594C342.641 152.406 342.422 128.438 343.672 114.688C342.422 113.562 341.859 112.438 341.984 111.312C342.047 110.875 342.734 110.031 344.047 108.781C344.234 106.219 345.328 105.062 347.328 105.312L348.734 105.969C353.984 102.344 358.078 100.688 361.016 101ZM349.297 112.531C348.609 126.219 348.391 136.875 348.641 144.5L349.484 144.594C355.609 141.719 360.703 134.969 364.766 124.344L365.422 120.312L365.516 119.469C366.078 113.781 364.797 109.5 361.672 106.625L360.172 106.531C358.047 106.344 354.422 108.344 349.297 112.531ZM395.609 102.969H395.891C400.828 103.156 403.297 103.844 403.297 105.031V106.906C402.859 107.844 402.078 108.5 400.953 108.875L396.828 108.594H394.766V108.875C395.641 159.062 397.016 184.156 398.891 184.156L408.922 182.75C410.297 183.375 410.984 184.25 410.984 185.375V185.656C410.984 187.656 407.141 188.969 399.453 189.594C394.328 190.531 390.391 191 387.641 191C386.266 190.438 385.578 189.531 385.578 188.281C385.578 186.156 387.922 185.094 392.609 185.094V184.719C391.047 174.531 389.891 149.344 389.141 109.156H388.766L380.234 110.656C378.672 109.969 377.891 108.906 377.891 107.469C377.891 105.656 381.828 104.375 389.703 103.625C389.703 103.312 391.672 103.094 395.609 102.969ZM421.203 101.188C422.766 101.188 423.672 102.375 423.922 104.75H423.641L423.922 105.688C426.047 105.688 431.953 105.031 441.641 103.719C443.203 104.281 443.984 105.25 443.984 106.625C443.984 108.625 439.766 109.906 431.328 110.469L423.078 111.594V115.719C423.078 118.656 424.266 130.562 426.641 151.438H438.641C440.266 151.438 441.266 152.344 441.641 154.156C441.641 156.094 440.172 157.062 437.234 157.062H426.641V157.438L426.359 176.844C426.359 181.469 426.828 184.844 427.766 186.969L446.328 185.75C448.328 186 449.328 186.875 449.328 188.375C449.328 190.375 447.141 191.375 442.766 191.375C431.516 192 425.891 192.594 425.891 193.156C423.641 193.156 422.078 189.719 421.203 182.844L420.734 175.719L420.922 154.438L417.453 115.719V112.812C417.453 105.062 418.609 101.188 420.922 101.188H421.203ZM471.547 103.719C477.797 103.719 482.234 107.469 484.859 114.969C485.234 115.719 485.422 116.812 485.422 118.25C485.422 119.812 484.453 120.688 482.516 120.875C480.828 120.875 479.766 118.812 479.328 114.688C477.203 111.125 474.828 109.344 472.203 109.344H470.891C467.078 109.344 464.828 113.094 464.141 120.594V120.875C464.141 129.875 469.859 143.469 481.297 161.656C484.859 168.594 486.641 174.406 486.641 179.094C486.641 185.469 483.391 190.406 476.891 193.906L473.609 194.469C467.859 194.469 462.359 190.531 457.109 182.656C456.109 180.906 455.609 179.031 455.609 177.031C455.609 173.844 456.703 172.062 458.891 171.688H459.734C461.109 172.625 461.797 173.5 461.797 174.312L461.234 177.031V177.219C461.234 181.281 464.578 185.031 471.266 188.469L473.047 188.844H473.891C477.141 188.844 479.516 186.062 481.016 180.5V179.375C481.016 172.688 476.672 162.844 467.984 149.844C461.734 137.531 458.609 127.875 458.609 120.875C458.609 113 461.641 107.5 467.703 104.375L471.547 103.719Z" fill="#D0EBFF"/>
</g>
<defs>
<filter id="filter0_d_60_65" x="0.390625" y="0.53125" width="586.25" height="296.281" filterUnits="userSpaceOnUse" color-interpolation-filters="sRGB">
<feFlood flood-opacity="0" result="BackgroundImageFix"/>
<feColorMatrix in="SourceAlpha" type="matrix" values="0 0 0 0 0 0 0 0 0 0 0 0 0 0 0 0 0 0 127 0" result="hardAlpha"/>
<feOffset/>
<feGaussianBlur stdDeviation="50"/>
<feComposite in2="hardAlpha" operator="out"/>
<feColorMatrix type="matrix" values="0 0 0 0 1 0 0 0 0 1 0 0 0 0 1 0 0 0 0.3 0"/>
<feBlend mode="normal" in2="BackgroundImageFix" result="effect1_dropShadow_60_65"/>
<feBlend mode="normal" in="SourceGraphic" in2="effect1_dropShadow_60_65" result="shape"/>
</filter>
</defs>
</svg>
