<svg width="1193" height="486" viewBox="0 0 1193 486" fill="none" xmlns="http://www.w3.org/2000/svg">
<g filter="url(#filter0_d_60_37)">
<mask id="path-1-outside-1_60_37" maskUnits="userSpaceOnUse" x="95" y="96" width="1003" height="295" fill="black">
<rect fill="white" x="95" y="96" width="1003" height="295"/>
<path d="M161.826 126.656C165.472 126.656 168.115 129.755 169.755 135.953C169.755 168.219 167.112 184.352 161.826 184.352L159.365 185.172C153.714 185.172 150.888 179.43 150.888 167.945C148.518 154.638 145.055 147.984 140.498 147.984C124.638 160.927 116.709 186.812 116.709 225.641C120.537 286.161 125.55 322.073 131.748 333.375C139.222 346.5 147.516 353.062 156.63 353.062H160.185C173.31 353.062 183.974 340.12 192.177 314.234C194.547 312.047 196.735 310.953 198.74 310.953C203.297 310.953 205.94 313.779 206.67 319.43C205.211 331.826 198.102 345.042 185.341 359.078C174.586 366.005 165.563 369.469 158.271 369.469C133.844 369.469 117.802 350.51 110.146 312.594C103.948 275.224 100.849 246.878 100.849 227.555V224C100.849 189.547 108.779 161.383 124.638 139.508C129.925 134.221 136.032 131.578 142.959 131.578L152.529 134.039C152.529 130.211 155.628 127.75 161.826 126.656Z"/>
<path d="M291.566 108.062C296.853 108.062 299.496 111.526 299.496 118.453V135.68C299.496 159.56 306.879 231.292 321.645 350.875V355.25C321.645 363.818 318.819 368.102 313.168 368.102C308.064 367.372 305.512 364.82 305.512 360.445V354.43C305.512 343.674 300.863 305.484 291.566 239.859C266.41 241.318 253.832 243.323 253.832 245.875L254.652 246.969V247.516C257.022 285.25 258.207 319.703 258.207 350.875V372.75C258.207 381.135 255.017 385.328 248.637 385.328C244.444 385.328 242.165 382.138 241.801 375.758V355.25C241.801 318.792 240.616 283.518 238.246 249.43H236.605C232.048 249.43 228.585 247.424 226.215 243.414V239.039C229.314 234.664 232.777 232.385 236.605 232.203C236.605 218.349 231.957 181.344 222.66 121.188C222.66 116.63 226.124 113.987 233.051 113.258C237.608 113.258 241.072 126.474 243.441 152.906C245.811 164.573 248.91 189.273 252.738 227.008H253.832L290.746 223.453C284.913 176.604 281.996 142.971 281.996 122.555C281.996 112.893 285.186 108.062 291.566 108.062ZM895.699 102.047C900.257 102.047 902.9 105.51 903.629 112.438H902.809L903.629 115.172C909.827 115.172 927.053 113.258 955.309 109.43C959.866 111.07 962.145 113.896 962.145 117.906C962.145 123.74 949.84 127.477 925.23 129.117L901.168 132.398V144.43C901.168 152.997 904.632 187.724 911.559 248.609H946.559C951.298 248.609 954.215 251.253 955.309 256.539C955.309 262.19 951.025 265.016 942.457 265.016H911.559V266.109L910.738 322.711C910.738 336.201 912.105 346.044 914.84 352.242L968.98 348.688C974.814 349.417 977.73 351.969 977.73 356.344C977.73 362.177 971.35 365.094 958.59 365.094C925.777 366.917 909.371 368.648 909.371 370.289C902.809 370.289 898.251 360.263 895.699 340.211L894.332 319.43L894.879 257.359L884.762 144.43V135.953C884.762 113.349 888.134 102.047 894.879 102.047H895.699Z"/>
<path d="M421.034 109.703C423.768 109.703 426.411 112.346 428.963 117.633L428.143 121.734C444.002 226.552 455.122 306.396 461.502 361.266C459.679 366.37 456.854 368.922 453.026 368.922C446.646 368.922 442.817 355.25 441.541 327.906L438.534 306.305L423.495 307.125C414.015 307.125 399.705 305.94 380.565 303.57C367.075 349.69 357.87 372.75 352.948 372.75H352.401C346.567 371.109 343.651 368.193 343.651 364C358.416 327.906 374.458 266.109 391.776 178.609C399.25 151.63 406.086 129.846 412.284 113.258C414.836 110.888 417.752 109.703 421.034 109.703ZM384.94 287.164C394.966 289.534 405.539 290.719 416.659 290.719H431.424C433.429 290.719 435.161 289.898 436.62 288.258L416.659 155.367H416.112C412.466 161.018 407.179 180.888 400.252 214.977L384.94 287.164Z"/>
<path d="M539.29 101.5C555.696 102.958 565.54 117.906 568.821 146.344V157.828C566.634 180.615 555.149 203.492 534.368 226.461C538.378 235.029 546.673 262.555 559.251 309.039L582.22 361.539C579.85 366.461 576.751 368.648 572.923 368.102C568.001 367.919 560.345 353.792 549.954 325.719C542.845 311.682 535.006 285.797 526.438 248.062C524.251 241.5 522.519 238.128 521.243 237.945L502.923 247.516C503.287 287.438 504.928 325.081 507.845 360.445C507.48 363.362 505.201 366.005 501.009 368.375L498.274 368.102C493.17 367.737 490.618 362.086 490.618 351.148C485.696 251.435 485.058 181.526 488.704 141.422C485.058 138.141 483.417 134.859 483.782 131.578C483.964 130.302 485.97 127.841 489.798 124.195C490.345 116.721 493.535 113.349 499.368 114.078L503.47 115.992C518.782 105.419 530.722 100.589 539.29 101.5ZM505.11 135.133C503.105 175.055 502.467 206.135 503.196 228.375L505.657 228.648C523.522 220.263 538.378 200.576 550.227 169.586L552.141 157.828L552.415 155.367C554.055 138.779 550.318 126.292 541.204 117.906L536.829 117.633C530.631 117.086 520.058 122.919 505.11 135.133Z"/>
<path d="M680.788 109.703C683.523 109.703 686.166 112.346 688.718 117.633L687.898 121.734C703.757 226.552 714.877 306.396 721.257 361.266C719.434 366.37 716.609 368.922 712.78 368.922C706.4 368.922 702.572 355.25 701.296 327.906L698.288 306.305L683.249 307.125C673.77 307.125 659.46 305.94 640.32 303.57C626.83 349.69 617.624 372.75 612.702 372.75H612.155C606.322 371.109 603.405 368.193 603.405 364C618.171 327.906 634.213 266.109 651.53 178.609C659.004 151.63 665.84 129.846 672.038 113.258C674.59 110.888 677.507 109.703 680.788 109.703ZM644.695 287.164C654.721 289.534 665.293 290.719 676.413 290.719H691.179C693.184 290.719 694.916 289.898 696.374 288.258L676.413 155.367H675.866C672.221 161.018 666.934 180.888 660.007 214.977L644.695 287.164Z"/>
<path d="M752.56 123.648C756.388 123.648 759.852 129.117 762.951 140.055H764.591C770.789 135.315 779.448 132.49 790.568 131.578C822.834 131.578 844.435 160.745 855.373 219.078L859.474 264.742C859.474 316.878 840.88 350.784 803.693 366.461L789.474 368.102H788.927C784.917 368.102 778.901 366.734 770.88 364V366.461L771.701 371.656C771.701 374.208 769.149 376.76 764.045 379.312C757.117 379.312 753.654 371.839 753.654 356.891C748.914 292.906 746.545 253.622 746.545 239.039L749.279 158.648C749.279 150.445 747.274 141.422 743.263 131.578C743.263 127.385 746.362 124.742 752.56 123.648ZM762.951 237.945L767.052 328.453C771.61 344.13 778.263 351.969 787.013 351.969H794.123C803.966 351.969 814.813 344.495 826.662 329.547C837.052 312.958 842.248 293.362 842.248 270.758V256.266C842.248 219.807 834.774 189.091 819.826 164.117C811.076 153.727 803.055 148.531 795.763 148.531H785.373C773.706 148.531 767.052 155.732 765.412 170.133L762.951 237.945Z"/>
<path d="M1048.14 109.43C1066.36 109.43 1079.31 120.367 1086.96 142.242C1088.06 144.43 1088.6 147.62 1088.6 151.812C1088.6 156.37 1085.78 158.922 1080.13 159.469C1075.21 159.469 1072.11 153.453 1070.83 141.422C1064.63 131.031 1057.71 125.836 1050.05 125.836H1046.22C1035.1 125.836 1028.54 136.773 1026.53 158.648V159.469C1026.53 185.719 1043.21 225.367 1076.57 278.414C1086.96 298.648 1092.16 315.602 1092.16 329.273C1092.16 347.867 1082.68 362.268 1063.72 372.477L1054.15 374.117C1037.38 374.117 1021.34 362.633 1006.03 339.664C1003.11 334.56 1001.65 329.091 1001.65 323.258C1001.65 313.961 1004.84 308.766 1011.22 307.672H1013.68C1017.69 310.406 1019.7 312.958 1019.7 315.328L1018.06 323.258V323.805C1018.06 335.654 1027.81 346.591 1047.31 356.617L1052.51 357.711H1054.97C1064.45 357.711 1071.38 349.599 1075.75 333.375V330.094C1075.75 310.589 1063.08 281.878 1037.74 243.961C1019.52 208.049 1010.4 179.885 1010.4 159.469C1010.4 136.5 1019.24 120.458 1036.92 111.344L1048.14 109.43Z"/>
</mask>
<path d="M161.826 126.656C165.472 126.656 168.115 129.755 169.755 135.953C169.755 168.219 167.112 184.352 161.826 184.352L159.365 185.172C153.714 185.172 150.888 179.43 150.888 167.945C148.518 154.638 145.055 147.984 140.498 147.984C124.638 160.927 116.709 186.812 116.709 225.641C120.537 286.161 125.55 322.073 131.748 333.375C139.222 346.5 147.516 353.062 156.63 353.062H160.185C173.31 353.062 183.974 340.12 192.177 314.234C194.547 312.047 196.735 310.953 198.74 310.953C203.297 310.953 205.94 313.779 206.67 319.43C205.211 331.826 198.102 345.042 185.341 359.078C174.586 366.005 165.563 369.469 158.271 369.469C133.844 369.469 117.802 350.51 110.146 312.594C103.948 275.224 100.849 246.878 100.849 227.555V224C100.849 189.547 108.779 161.383 124.638 139.508C129.925 134.221 136.032 131.578 142.959 131.578L152.529 134.039C152.529 130.211 155.628 127.75 161.826 126.656Z" fill="#00A855"/>
<path d="M291.566 108.062C296.853 108.062 299.496 111.526 299.496 118.453V135.68C299.496 159.56 306.879 231.292 321.645 350.875V355.25C321.645 363.818 318.819 368.102 313.168 368.102C308.064 367.372 305.512 364.82 305.512 360.445V354.43C305.512 343.674 300.863 305.484 291.566 239.859C266.41 241.318 253.832 243.323 253.832 245.875L254.652 246.969V247.516C257.022 285.25 258.207 319.703 258.207 350.875V372.75C258.207 381.135 255.017 385.328 248.637 385.328C244.444 385.328 242.165 382.138 241.801 375.758V355.25C241.801 318.792 240.616 283.518 238.246 249.43H236.605C232.048 249.43 228.585 247.424 226.215 243.414V239.039C229.314 234.664 232.777 232.385 236.605 232.203C236.605 218.349 231.957 181.344 222.66 121.188C222.66 116.63 226.124 113.987 233.051 113.258C237.608 113.258 241.072 126.474 243.441 152.906C245.811 164.573 248.91 189.273 252.738 227.008H253.832L290.746 223.453C284.913 176.604 281.996 142.971 281.996 122.555C281.996 112.893 285.186 108.062 291.566 108.062ZM895.699 102.047C900.257 102.047 902.9 105.51 903.629 112.438H902.809L903.629 115.172C909.827 115.172 927.053 113.258 955.309 109.43C959.866 111.07 962.145 113.896 962.145 117.906C962.145 123.74 949.84 127.477 925.23 129.117L901.168 132.398V144.43C901.168 152.997 904.632 187.724 911.559 248.609H946.559C951.298 248.609 954.215 251.253 955.309 256.539C955.309 262.19 951.025 265.016 942.457 265.016H911.559V266.109L910.738 322.711C910.738 336.201 912.105 346.044 914.84 352.242L968.98 348.688C974.814 349.417 977.73 351.969 977.73 356.344C977.73 362.177 971.35 365.094 958.59 365.094C925.777 366.917 909.371 368.648 909.371 370.289C902.809 370.289 898.251 360.263 895.699 340.211L894.332 319.43L894.879 257.359L884.762 144.43V135.953C884.762 113.349 888.134 102.047 894.879 102.047H895.699Z" fill="#1573B9"/>
<path d="M421.034 109.703C423.768 109.703 426.411 112.346 428.963 117.633L428.143 121.734C444.002 226.552 455.122 306.396 461.502 361.266C459.679 366.37 456.854 368.922 453.026 368.922C446.646 368.922 442.817 355.25 441.541 327.906L438.534 306.305L423.495 307.125C414.015 307.125 399.705 305.94 380.565 303.57C367.075 349.69 357.87 372.75 352.948 372.75H352.401C346.567 371.109 343.651 368.193 343.651 364C358.416 327.906 374.458 266.109 391.776 178.609C399.25 151.63 406.086 129.846 412.284 113.258C414.836 110.888 417.752 109.703 421.034 109.703ZM384.94 287.164C394.966 289.534 405.539 290.719 416.659 290.719H431.424C433.429 290.719 435.161 289.898 436.62 288.258L416.659 155.367H416.112C412.466 161.018 407.179 180.888 400.252 214.977L384.94 287.164Z" fill="#EE018D"/>
<path d="M539.29 101.5C555.696 102.958 565.54 117.906 568.821 146.344V157.828C566.634 180.615 555.149 203.492 534.368 226.461C538.378 235.029 546.673 262.555 559.251 309.039L582.22 361.539C579.85 366.461 576.751 368.648 572.923 368.102C568.001 367.919 560.345 353.792 549.954 325.719C542.845 311.682 535.006 285.797 526.438 248.062C524.251 241.5 522.519 238.128 521.243 237.945L502.923 247.516C503.287 287.438 504.928 325.081 507.845 360.445C507.48 363.362 505.201 366.005 501.009 368.375L498.274 368.102C493.17 367.737 490.618 362.086 490.618 351.148C485.696 251.435 485.058 181.526 488.704 141.422C485.058 138.141 483.417 134.859 483.782 131.578C483.964 130.302 485.97 127.841 489.798 124.195C490.345 116.721 493.535 113.349 499.368 114.078L503.47 115.992C518.782 105.419 530.722 100.589 539.29 101.5ZM505.11 135.133C503.105 175.055 502.467 206.135 503.196 228.375L505.657 228.648C523.522 220.263 538.378 200.576 550.227 169.586L552.141 157.828L552.415 155.367C554.055 138.779 550.318 126.292 541.204 117.906L536.829 117.633C530.631 117.086 520.058 122.919 505.11 135.133Z" fill="#15A99D"/>
<path d="M680.788 109.703C683.523 109.703 686.166 112.346 688.718 117.633L687.898 121.734C703.757 226.552 714.877 306.396 721.257 361.266C719.434 366.37 716.609 368.922 712.78 368.922C706.4 368.922 702.572 355.25 701.296 327.906L698.288 306.305L683.249 307.125C673.77 307.125 659.46 305.94 640.32 303.57C626.83 349.69 617.624 372.75 612.702 372.75H612.155C606.322 371.109 603.405 368.193 603.405 364C618.171 327.906 634.213 266.109 651.53 178.609C659.004 151.63 665.84 129.846 672.038 113.258C674.59 110.888 677.507 109.703 680.788 109.703ZM644.695 287.164C654.721 289.534 665.293 290.719 676.413 290.719H691.179C693.184 290.719 694.916 289.898 696.374 288.258L676.413 155.367H675.866C672.221 161.018 666.934 180.888 660.007 214.977L644.695 287.164Z" fill="#D9DD2B"/>
<path d="M752.56 123.648C756.388 123.648 759.852 129.117 762.951 140.055H764.591C770.789 135.315 779.448 132.49 790.568 131.578C822.834 131.578 844.435 160.745 855.373 219.078L859.474 264.742C859.474 316.878 840.88 350.784 803.693 366.461L789.474 368.102H788.927C784.917 368.102 778.901 366.734 770.88 364V366.461L771.701 371.656C771.701 374.208 769.149 376.76 764.045 379.312C757.117 379.312 753.654 371.839 753.654 356.891C748.914 292.906 746.545 253.622 746.545 239.039L749.279 158.648C749.279 150.445 747.274 141.422 743.263 131.578C743.263 127.385 746.362 124.742 752.56 123.648ZM762.951 237.945L767.052 328.453C771.61 344.13 778.263 351.969 787.013 351.969H794.123C803.966 351.969 814.813 344.495 826.662 329.547C837.052 312.958 842.248 293.362 842.248 270.758V256.266C842.248 219.807 834.774 189.091 819.826 164.117C811.076 153.727 803.055 148.531 795.763 148.531H785.373C773.706 148.531 767.052 155.732 765.412 170.133L762.951 237.945Z" fill="#932691"/>
<path d="M1048.14 109.43C1066.36 109.43 1079.31 120.367 1086.96 142.242C1088.06 144.43 1088.6 147.62 1088.6 151.812C1088.6 156.37 1085.78 158.922 1080.13 159.469C1075.21 159.469 1072.11 153.453 1070.83 141.422C1064.63 131.031 1057.71 125.836 1050.05 125.836H1046.22C1035.1 125.836 1028.54 136.773 1026.53 158.648V159.469C1026.53 185.719 1043.21 225.367 1076.57 278.414C1086.96 298.648 1092.16 315.602 1092.16 329.273C1092.16 347.867 1082.68 362.268 1063.72 372.477L1054.15 374.117C1037.38 374.117 1021.34 362.633 1006.03 339.664C1003.11 334.56 1001.65 329.091 1001.65 323.258C1001.65 313.961 1004.84 308.766 1011.22 307.672H1013.68C1017.69 310.406 1019.7 312.958 1019.7 315.328L1018.06 323.258V323.805C1018.06 335.654 1027.81 346.591 1047.31 356.617L1052.51 357.711H1054.97C1064.45 357.711 1071.38 349.599 1075.75 333.375V330.094C1075.75 310.589 1063.08 281.878 1037.74 243.961C1019.52 208.049 1010.4 179.885 1010.4 159.469C1010.4 136.5 1019.24 120.458 1036.92 111.344L1048.14 109.43Z" fill="#F1403A"/>
<path d="M161.826 126.656V121.656C161.534 121.656 161.244 121.682 160.957 121.732L161.826 126.656ZM169.755 135.953H174.755C174.755 135.521 174.7 135.091 174.589 134.674L169.755 135.953ZM161.826 184.352V179.352C161.288 179.352 160.754 179.438 160.245 179.608L161.826 184.352ZM159.365 185.172V190.172C159.902 190.172 160.436 190.085 160.946 189.915L159.365 185.172ZM150.888 167.945H155.888C155.888 167.651 155.862 167.358 155.811 167.069L150.888 167.945ZM140.498 147.984V142.984C139.346 142.984 138.229 143.382 137.336 144.111L140.498 147.984ZM116.709 225.641H111.709C111.709 225.746 111.712 225.851 111.719 225.956L116.709 225.641ZM131.748 333.375L127.364 335.779C127.376 335.803 127.389 335.826 127.403 335.849L131.748 333.375ZM192.177 314.234L188.786 310.56C188.147 311.15 187.673 311.895 187.411 312.724L192.177 314.234ZM206.67 319.43L211.635 320.014C211.683 319.607 211.681 319.196 211.628 318.79L206.67 319.43ZM185.341 359.078L188.049 363.282C188.415 363.046 188.748 362.764 189.041 362.441L185.341 359.078ZM110.146 312.594L105.213 313.412C105.223 313.469 105.233 313.526 105.245 313.583L110.146 312.594ZM124.638 139.508L121.103 135.972C120.916 136.159 120.745 136.36 120.59 136.573L124.638 139.508ZM142.959 131.578L144.204 126.736C143.797 126.631 143.379 126.578 142.959 126.578V131.578ZM152.529 134.039L151.284 138.882C152.781 139.266 154.371 138.937 155.593 137.99C156.814 137.043 157.529 135.585 157.529 134.039H152.529ZM161.826 131.656C162.003 131.656 162.242 131.643 162.738 132.225C163.374 132.971 164.195 134.485 164.922 137.233L174.589 134.674C173.676 131.223 172.354 128.089 170.347 125.736C168.2 123.219 165.295 121.656 161.826 121.656V131.656ZM164.755 135.953C164.755 152.022 164.093 163.791 162.839 171.444C162.204 175.319 161.473 177.768 160.808 179.121C160.034 180.695 160.15 179.352 161.826 179.352V189.352C166.144 189.352 168.574 185.991 169.782 183.532C171.1 180.852 172.021 177.251 172.707 173.06C174.097 164.58 174.755 152.149 174.755 135.953H164.755ZM160.245 179.608L157.784 180.428L160.946 189.915L163.407 189.095L160.245 179.608ZM159.365 180.172C158.844 180.172 158.607 180.055 158.461 179.956C158.279 179.832 157.911 179.506 157.494 178.658C156.59 176.821 155.888 173.438 155.888 167.945H145.888C145.888 173.937 146.599 179.167 148.521 183.073C149.516 185.095 150.915 186.922 152.852 188.235C154.825 189.571 157.061 190.172 159.365 190.172V180.172ZM155.811 167.069C154.596 160.248 153.031 154.667 150.948 150.666C148.947 146.822 145.645 142.984 140.498 142.984V152.984C139.908 152.984 140.616 152.474 142.078 155.283C143.459 157.936 144.811 162.335 145.966 168.822L155.811 167.069ZM137.336 144.111C119.61 158.577 111.709 186.549 111.709 225.641H121.709C121.709 187.076 129.666 163.277 143.659 151.858L137.336 144.111ZM111.719 225.956C113.636 256.271 115.856 280.521 118.387 298.656C119.653 307.722 121.006 315.33 122.457 321.439C123.888 327.465 125.485 332.354 127.364 335.779L136.132 330.971C134.911 328.745 133.558 324.906 132.186 319.129C130.834 313.435 129.532 306.164 128.291 297.274C125.81 279.497 123.609 255.531 121.699 225.325L111.719 225.956ZM127.403 335.849C135.156 349.465 144.757 358.062 156.63 358.062V348.062C150.275 348.062 143.287 343.535 136.093 330.901L127.403 335.849ZM156.63 358.062H160.185V348.062H156.63V358.062ZM160.185 358.062C168.639 358.062 175.89 353.812 181.886 346.535C187.798 339.359 192.754 328.966 196.944 315.745L187.411 312.724C183.398 325.388 178.92 334.409 174.168 340.176C169.5 345.841 164.856 348.062 160.185 348.062V358.062ZM195.569 317.908C197.548 316.081 198.566 315.953 198.74 315.953V305.953C194.903 305.953 191.546 308.013 188.786 310.56L195.569 317.908ZM198.74 315.953C199.902 315.953 200.281 316.266 200.489 316.488C200.828 316.851 201.42 317.815 201.711 320.07L211.628 318.79C211.19 315.393 210.095 312.119 207.792 309.656C205.356 307.053 202.135 305.953 198.74 305.953V315.953ZM201.704 318.845C200.416 329.794 194.044 342.073 181.642 355.715L189.041 362.441C202.16 348.011 210.007 333.857 211.635 320.014L201.704 318.845ZM182.634 354.875C172.153 361.625 164.121 364.469 158.271 364.469V374.469C167.005 374.469 177.02 370.385 188.049 363.282L182.634 354.875ZM158.271 364.469C147.556 364.469 138.826 360.398 131.736 352.02C124.482 343.446 118.793 330.155 115.047 311.604L105.245 313.583C109.155 332.949 115.316 348.095 124.103 358.48C133.055 369.06 144.559 374.469 158.271 374.469V364.469ZM115.079 311.776C108.892 274.471 105.849 246.454 105.849 227.555H95.8492C95.8492 247.301 99.0047 275.977 105.213 313.412L115.079 311.776ZM105.849 227.555V224H95.8492V227.555H105.849ZM105.849 224C105.849 190.31 113.597 163.255 128.686 142.443L120.59 136.573C103.961 159.51 95.8492 188.784 95.8492 224H105.849ZM128.174 143.043C132.605 138.612 137.469 136.578 142.959 136.578V126.578C134.594 126.578 127.245 129.83 121.103 135.972L128.174 143.043ZM141.713 136.421L151.284 138.882L153.774 129.197L144.204 126.736L141.713 136.421ZM157.529 134.039C157.529 133.777 157.577 133.671 157.595 133.634C157.616 133.592 157.692 133.453 157.963 133.238C158.585 132.743 159.98 132.059 162.695 131.58L160.957 121.732C157.474 122.347 154.22 123.44 151.744 125.407C149.047 127.549 147.529 130.541 147.529 134.039H157.529ZM321.645 350.875H326.645C326.645 350.67 326.632 350.466 326.607 350.262L321.645 350.875ZM313.168 368.102L312.461 373.051C312.695 373.085 312.931 373.102 313.168 373.102V368.102ZM291.566 239.859L296.517 239.158C296.152 236.583 293.874 234.717 291.277 234.868L291.566 239.859ZM253.832 245.875H248.832C248.832 246.957 249.183 248.01 249.832 248.875L253.832 245.875ZM254.652 246.969H259.652C259.652 245.887 259.301 244.834 258.652 243.969L254.652 246.969ZM254.652 247.516H249.652C249.652 247.62 249.656 247.725 249.662 247.829L254.652 247.516ZM241.801 375.758H236.801C236.801 375.853 236.803 375.948 236.809 376.043L241.801 375.758ZM238.246 249.43L243.234 249.083C243.052 246.462 240.873 244.43 238.246 244.43V249.43ZM226.215 243.414H221.215C221.215 244.309 221.455 245.187 221.91 245.958L226.215 243.414ZM226.215 239.039L222.135 236.149C221.536 236.994 221.215 238.004 221.215 239.039H226.215ZM236.605 232.203L236.843 237.197C239.509 237.071 241.605 234.872 241.605 232.203H236.605ZM222.66 121.188H217.66C217.66 121.443 217.68 121.698 217.719 121.951L222.66 121.188ZM233.051 113.258V108.258C232.876 108.258 232.701 108.267 232.527 108.285L233.051 113.258ZM243.441 152.906L238.461 153.353C238.478 153.537 238.505 153.72 238.541 153.902L243.441 152.906ZM252.738 227.008L247.764 227.512C248.023 230.065 250.172 232.008 252.738 232.008V227.008ZM253.832 227.008V232.008C253.992 232.008 254.152 232 254.311 231.985L253.832 227.008ZM290.746 223.453L291.225 228.43C292.569 228.301 293.804 227.633 294.648 226.579C295.492 225.526 295.875 224.175 295.708 222.835L290.746 223.453ZM291.566 113.062C293.022 113.062 293.368 113.469 293.539 113.694C293.905 114.173 294.496 115.484 294.496 118.453H304.496C304.496 114.495 303.766 110.611 301.488 107.627C299.016 104.388 295.397 103.062 291.566 103.062V113.062ZM294.496 118.453V135.68H304.496V118.453H294.496ZM294.496 135.68C294.496 159.948 301.936 232.065 316.682 351.488L326.607 350.262C311.821 230.518 304.496 159.172 304.496 135.68H294.496ZM316.645 350.875V355.25H326.645V350.875H316.645ZM316.645 355.25C316.645 359.143 315.974 361.192 315.352 362.136C314.969 362.715 314.514 363.102 313.168 363.102V373.102C317.473 373.102 321.256 371.346 323.699 367.642C325.902 364.301 326.645 359.925 326.645 355.25H316.645ZM313.875 363.152C311.949 362.877 311.206 362.35 310.961 362.105C310.816 361.96 310.512 361.607 310.512 360.445H300.512C300.512 363.659 301.484 366.77 303.89 369.176C306.197 371.483 309.282 372.597 312.461 373.051L313.875 363.152ZM310.512 360.445V354.43H300.512V360.445H310.512ZM310.512 354.43C310.512 348.686 309.302 336.122 306.989 317.117C304.659 297.974 301.167 271.983 296.517 239.158L286.616 240.561C291.262 273.36 294.744 299.277 297.062 318.325C299.397 337.509 300.512 349.418 300.512 354.43H310.512ZM291.277 234.868C278.66 235.599 269.023 236.476 262.478 237.519C259.248 238.034 256.514 238.628 254.487 239.363C253.502 239.72 252.361 240.222 251.376 240.978C250.445 241.694 248.832 243.298 248.832 245.875H258.832C258.832 247.814 257.612 248.797 257.467 248.909C257.269 249.061 257.307 248.977 257.894 248.764C259.012 248.359 260.994 247.882 264.053 247.395C270.086 246.433 279.317 245.578 291.856 244.851L291.277 234.868ZM249.832 248.875L250.652 249.969L258.652 243.969L257.832 242.875L249.832 248.875ZM249.652 246.969V247.516H259.652V246.969H249.652ZM249.662 247.829C252.027 285.48 253.207 319.827 253.207 350.875H263.207C263.207 319.579 262.018 285.02 259.643 247.202L249.662 247.829ZM253.207 350.875V372.75H263.207V350.875H253.207ZM253.207 372.75C253.207 376.451 252.478 378.311 251.835 379.156C251.389 379.743 250.634 380.328 248.637 380.328V390.328C253.02 390.328 257.05 388.817 259.794 385.211C262.341 381.864 263.207 377.435 263.207 372.75H253.207ZM248.637 380.328C248.231 380.328 248.08 380.254 248.062 380.245C248.056 380.242 247.985 380.215 247.852 380.029C247.507 379.547 246.952 378.256 246.793 375.473L236.809 376.043C237.014 379.64 237.781 383.134 239.715 385.842C241.866 388.854 245.057 390.328 248.637 390.328V380.328ZM246.801 375.758V355.25H236.801V375.758H246.801ZM246.801 355.25C246.801 318.684 245.612 283.294 243.234 249.083L233.258 249.776C235.619 283.742 236.801 318.9 236.801 355.25H246.801ZM238.246 244.43H236.605V254.43H238.246V244.43ZM236.605 244.43C233.864 244.43 232.014 243.4 230.519 240.87L221.91 245.958C225.155 251.449 230.232 254.43 236.605 254.43V244.43ZM231.215 243.414V239.039H221.215V243.414H231.215ZM230.295 241.929C232.88 238.28 235.1 237.28 236.843 237.197L236.368 227.209C230.455 227.49 225.748 231.048 222.135 236.149L230.295 241.929ZM241.605 232.203C241.605 217.872 236.873 180.413 227.602 120.424L217.719 121.951C227.041 182.274 231.605 218.826 231.605 232.203H241.605ZM227.66 121.188C227.66 120.384 227.864 120.088 228.291 119.762C228.98 119.237 230.528 118.551 233.574 118.23L232.527 108.285C228.647 108.694 225 109.694 222.224 111.812C219.188 114.129 217.66 117.433 217.66 121.188H227.66ZM233.051 118.258C231.484 118.258 231.249 117.11 231.989 118.33C232.62 119.369 233.408 121.301 234.23 124.437C235.853 130.631 237.283 140.207 238.461 153.353L248.421 152.46C247.23 139.173 245.744 128.925 243.903 121.902C242.993 118.431 241.913 115.407 240.538 113.142C239.273 111.057 236.896 108.258 233.051 108.258V118.258ZM238.541 153.902C240.853 165.281 243.93 189.726 247.764 227.512L257.713 226.503C253.89 188.821 250.77 163.865 248.341 151.911L238.541 153.902ZM252.738 232.008H253.832V222.008H252.738V232.008ZM254.311 231.985L291.225 228.43L290.267 218.476L253.353 222.031L254.311 231.985ZM295.708 222.835C289.876 175.996 286.996 142.633 286.996 122.555H276.996C276.996 143.309 279.95 177.212 285.784 224.071L295.708 222.835ZM286.996 122.555C286.996 118.116 287.758 115.657 288.561 114.441C289.124 113.588 289.853 113.062 291.566 113.062V103.062C286.899 103.062 282.843 104.952 280.216 108.93C277.829 112.545 276.996 117.332 276.996 122.555H286.996ZM428.963 117.633L433.866 118.613C434.08 117.546 433.939 116.439 433.466 115.459L428.963 117.633ZM428.143 121.734L423.24 120.754C423.126 121.323 423.112 121.908 423.199 122.482L428.143 121.734ZM461.502 361.266L466.211 362.947C466.469 362.224 466.558 361.451 466.469 360.688L461.502 361.266ZM441.541 327.906L446.536 327.673C446.529 327.52 446.515 327.368 446.494 327.217L441.541 327.906ZM438.534 306.305L443.486 305.615C443.127 303.041 440.856 301.171 438.261 301.312L438.534 306.305ZM423.495 307.125V312.125C423.585 312.125 423.676 312.123 423.767 312.118L423.495 307.125ZM380.565 303.57L381.179 298.608C378.746 298.307 376.454 299.814 375.766 302.167L380.565 303.57ZM352.401 372.75L351.047 377.563C351.488 377.687 351.943 377.75 352.401 377.75V372.75ZM343.651 364L339.023 362.107C338.777 362.708 338.651 363.351 338.651 364H343.651ZM391.776 178.609L386.957 177.275C386.924 177.395 386.895 177.516 386.871 177.639L391.776 178.609ZM412.284 113.258L408.881 109.594C408.311 110.123 407.872 110.779 407.6 111.508L412.284 113.258ZM384.94 287.164L380.049 286.127C379.485 288.784 381.146 291.405 383.79 292.03L384.94 287.164ZM436.62 288.258L440.357 291.58C441.342 290.471 441.784 288.982 441.564 287.515L436.62 288.258ZM416.659 155.367L421.603 154.624C421.236 152.177 419.133 150.367 416.659 150.367V155.367ZM416.112 155.367V150.367C414.413 150.367 412.831 151.229 411.91 152.657L416.112 155.367ZM400.252 214.977L405.143 216.014C405.146 216 405.149 215.986 405.152 215.972L400.252 214.977ZM421.034 114.703C420.648 114.703 420.795 114.485 421.531 115.221C422.297 115.987 423.306 117.414 424.461 119.807L433.466 115.459C432.069 112.565 430.48 110.028 428.602 108.15C426.695 106.243 424.154 104.703 421.034 104.703V114.703ZM424.06 116.652L423.24 120.754L433.046 122.715L433.866 118.613L424.06 116.652ZM423.199 122.482C439.056 227.285 450.166 307.061 456.536 361.843L466.469 360.688C460.079 305.731 448.948 225.819 433.087 120.986L423.199 122.482ZM456.794 359.584C456.05 361.667 455.26 362.76 454.665 363.297C454.176 363.738 453.709 363.922 453.026 363.922V373.922C456.171 373.922 459.03 372.829 461.367 370.718C463.598 368.704 465.132 365.968 466.211 362.947L456.794 359.584ZM453.026 363.922C453.507 363.922 453.403 364.274 452.726 363.367C451.983 362.372 451.071 360.486 450.184 357.32C448.427 351.043 447.169 341.247 446.536 327.673L436.547 328.139C437.189 341.909 438.484 352.621 440.555 360.016C441.582 363.686 442.904 366.927 444.713 369.35C446.588 371.861 449.354 373.922 453.026 373.922V363.922ZM446.494 327.217L443.486 305.615L433.581 306.994L436.589 328.596L446.494 327.217ZM438.261 301.312L423.222 302.132L423.767 312.118L438.806 311.297L438.261 301.312ZM423.495 302.125C414.337 302.125 400.279 300.973 381.179 298.608L379.95 308.532C399.132 310.907 413.693 312.125 423.495 312.125V302.125ZM375.766 302.167C369.033 325.187 363.412 342.298 358.9 353.601C356.632 359.282 354.722 363.295 353.179 365.814C352.398 367.088 351.84 367.766 351.528 368.066C351.11 368.468 351.626 367.75 352.948 367.75V377.75C355.499 377.75 357.38 376.312 358.461 375.272C359.647 374.131 360.72 372.647 361.706 371.038C363.694 367.792 365.852 363.158 368.187 357.309C372.88 345.552 378.607 328.073 385.364 304.974L375.766 302.167ZM352.948 367.75H352.401V377.75H352.948V367.75ZM353.754 367.937C351.302 367.247 350.008 366.43 349.374 365.797C348.87 365.293 348.651 364.795 348.651 364H338.651C338.651 367.398 339.89 370.454 342.303 372.868C344.586 375.15 347.666 376.612 351.047 377.563L353.754 367.937ZM348.279 365.893C363.243 329.313 379.359 267.098 396.681 179.58L386.871 177.639C369.557 265.12 353.59 326.5 339.023 362.107L348.279 365.893ZM396.594 179.944C404.049 153.035 410.841 131.405 416.967 115.008L407.6 111.508C401.331 128.287 394.451 150.225 386.957 177.275L396.594 179.944ZM415.686 116.922C417.375 115.353 419.097 114.703 421.034 114.703V104.703C416.408 104.703 412.296 106.423 408.881 109.594L415.686 116.922ZM383.79 292.03C394.221 294.496 405.182 295.719 416.659 295.719V285.719C405.896 285.719 395.711 284.572 386.09 282.298L383.79 292.03ZM416.659 295.719H431.424V285.719H416.659V295.719ZM431.424 295.719C435.003 295.719 438.05 294.174 440.357 291.58L432.882 284.936C432.272 285.623 431.856 285.719 431.424 285.719V295.719ZM441.564 287.515L421.603 154.624L411.714 156.11L431.675 289.001L441.564 287.515ZM416.659 150.367H416.112V160.367H416.659V150.367ZM411.91 152.657C410.664 154.588 409.494 157.352 408.35 160.62C407.176 163.975 405.92 168.188 404.581 173.222C401.9 183.296 398.824 196.896 395.352 213.981L405.152 215.972C408.607 198.969 411.638 185.589 414.244 175.793C415.548 170.893 416.73 166.948 417.789 163.923C418.878 160.811 419.736 158.972 420.313 158.078L411.91 152.657ZM395.361 213.939L380.049 286.127L389.831 288.202L405.143 216.014L395.361 213.939ZM539.29 101.5L538.761 106.472C538.79 106.475 538.818 106.478 538.847 106.48L539.29 101.5ZM568.821 146.344H573.821C573.821 146.152 573.81 145.961 573.788 145.771L568.821 146.344ZM568.821 157.828L573.798 158.306C573.813 158.147 573.821 157.988 573.821 157.828H568.821ZM534.368 226.461L530.66 223.106C529.309 224.599 528.986 226.757 529.839 228.581L534.368 226.461ZM559.251 309.039L554.424 310.345C554.489 310.583 554.571 310.817 554.67 311.043L559.251 309.039ZM582.219 361.539L586.725 363.708C587.357 362.395 587.385 360.871 586.8 359.535L582.219 361.539ZM572.923 368.102L573.63 363.152C573.457 363.127 573.282 363.111 573.108 363.105L572.923 368.102ZM549.954 325.719L554.643 323.983C554.577 323.804 554.5 323.63 554.414 323.46L549.954 325.719ZM526.438 248.062L531.314 246.955C531.278 246.795 531.234 246.637 531.182 246.481L526.438 248.062ZM521.243 237.945L521.95 232.996C520.913 232.847 519.856 233.029 518.928 233.514L521.243 237.945ZM502.923 247.516L500.608 243.084C498.943 243.954 497.906 245.683 497.923 247.561L502.923 247.516ZM507.844 360.445L512.806 361.065C512.849 360.723 512.856 360.378 512.828 360.034L507.844 360.445ZM501.009 368.375L500.511 373.35C501.538 373.453 502.571 373.235 503.469 372.728L501.009 368.375ZM498.274 368.102L498.772 363.126C498.725 363.122 498.678 363.118 498.63 363.114L498.274 368.102ZM490.618 351.148H495.618C495.618 351.066 495.616 350.984 495.612 350.902L490.618 351.148ZM488.704 141.422L493.683 141.875C493.826 140.305 493.22 138.76 492.049 137.705L488.704 141.422ZM483.782 131.578L478.832 130.871C478.825 130.923 478.818 130.974 478.813 131.026L483.782 131.578ZM489.798 124.195L493.246 127.816C494.145 126.959 494.694 125.799 494.784 124.56L489.798 124.195ZM499.368 114.078L501.482 109.547C501.01 109.327 500.506 109.181 499.988 109.117L499.368 114.078ZM503.469 115.992L501.355 120.523C502.964 121.274 504.85 121.115 506.31 120.107L503.469 115.992ZM505.11 135.133L501.947 131.261C500.852 132.155 500.187 133.471 500.116 134.882L505.11 135.133ZM503.196 228.375L498.199 228.539C498.28 231.023 500.174 233.07 502.644 233.344L503.196 228.375ZM505.657 228.648L505.105 233.618C506.021 233.72 506.947 233.566 507.782 233.175L505.657 228.648ZM550.227 169.586L554.898 171.372C555.019 171.054 555.108 170.725 555.162 170.389L550.227 169.586ZM552.141 157.828L557.076 158.632C557.09 158.548 557.102 158.464 557.111 158.38L552.141 157.828ZM552.415 155.367L557.384 155.919C557.386 155.899 557.389 155.879 557.391 155.859L552.415 155.367ZM541.204 117.906L544.589 114.227C543.745 113.45 542.66 112.988 541.516 112.916L541.204 117.906ZM536.829 117.633L536.389 122.613C536.432 122.617 536.474 122.62 536.517 122.623L536.829 117.633ZM538.847 106.48C545.386 107.062 550.635 110.228 554.801 116.555C559.11 123.097 562.255 133.059 563.854 146.917L573.788 145.771C572.106 131.191 568.688 119.46 563.153 111.055C557.476 102.433 549.6 97.3967 539.733 96.5196L538.847 106.48ZM563.821 146.344V157.828H573.821V146.344H563.821ZM563.844 157.35C561.79 178.745 550.971 200.657 530.66 223.106L538.076 229.816C559.327 206.327 571.477 182.484 573.798 158.306L563.844 157.35ZM529.839 228.581C531.664 232.479 534.643 241.149 538.809 254.974C542.937 268.671 548.141 287.123 554.424 310.345L564.077 307.733C557.783 284.471 552.551 265.917 548.384 252.089C544.255 238.388 541.082 229.01 538.896 224.341L529.839 228.581ZM554.67 311.043L577.639 363.543L586.8 359.535L563.832 307.035L554.67 311.043ZM577.714 359.37C576.746 361.381 575.85 362.352 575.235 362.786C574.75 363.128 574.308 363.249 573.63 363.152L572.216 373.051C575.366 373.501 578.387 372.801 581.001 370.956C583.485 369.203 585.323 366.619 586.725 363.708L577.714 359.37ZM573.108 363.105C574.078 363.141 573.893 363.663 572.474 362.049C571.26 360.668 569.724 358.381 567.885 354.987C564.228 348.238 559.813 337.952 554.643 323.983L545.265 327.454C550.485 341.558 555.094 352.372 559.093 359.751C561.082 363.421 563.032 366.454 564.963 368.651C566.689 370.614 569.306 372.971 572.738 373.098L573.108 363.105ZM554.414 323.46C547.615 310.035 539.885 284.702 531.314 246.955L521.562 249.17C530.127 286.891 538.074 313.33 545.493 327.978L554.414 323.46ZM531.182 246.481C530.062 243.121 528.987 240.353 527.947 238.327C527.434 237.329 526.828 236.308 526.102 235.45C525.507 234.747 524.138 233.308 521.95 232.996L520.536 242.895C519.704 242.776 519.136 242.443 518.862 242.25C518.717 242.148 518.617 242.059 518.56 242.004C518.502 241.949 518.472 241.914 518.469 241.91C518.466 241.908 518.525 241.977 518.637 242.156C518.747 242.331 518.885 242.572 519.051 242.895C519.742 244.242 520.628 246.442 521.695 249.644L531.182 246.481ZM518.928 233.514L500.608 243.084L505.238 251.947L523.558 242.377L518.928 233.514ZM497.923 247.561C498.288 287.59 499.934 325.356 502.861 360.856L512.828 360.034C509.922 324.805 508.286 287.285 507.922 247.47L497.923 247.561ZM502.883 359.825C502.813 360.385 502.243 361.934 498.548 364.022L503.469 372.728C508.159 370.077 512.147 366.339 512.806 361.065L502.883 359.825ZM501.506 363.4L498.772 363.126L497.777 373.077L500.511 373.35L501.506 363.4ZM498.63 363.114C498.33 363.093 497.8 363.106 497.089 361.532C496.249 359.671 495.618 356.369 495.618 351.148H485.618C485.618 356.866 486.263 361.857 487.975 365.648C489.816 369.725 493.114 372.746 497.918 373.089L498.63 363.114ZM495.612 350.902C490.69 251.18 490.073 181.59 493.683 141.875L483.724 140.969C480.043 181.462 480.703 251.689 485.624 351.395L495.612 350.902ZM492.049 137.705C488.99 134.953 488.639 133.139 488.751 132.13L478.813 131.026C478.195 136.58 481.126 141.328 485.359 145.138L492.049 137.705ZM488.732 132.285C488.644 132.9 488.437 133.161 488.576 132.925C488.675 132.756 488.892 132.433 489.299 131.934C490.11 130.938 491.398 129.576 493.246 127.816L486.349 120.575C484.369 122.461 482.74 124.152 481.546 125.617C480.95 126.349 480.393 127.108 479.945 127.873C479.537 128.571 479.011 129.618 478.832 130.871L488.732 132.285ZM494.784 124.56C495.022 121.314 495.788 119.967 496.233 119.497C496.447 119.27 496.944 118.814 498.748 119.04L499.988 109.117C495.958 108.613 491.944 109.478 488.968 112.625C486.223 115.526 485.12 119.602 484.811 123.83L494.784 124.56ZM497.254 118.609L501.355 120.523L505.584 111.461L501.482 109.547L497.254 118.609ZM506.31 120.107C513.786 114.945 520.268 111.306 525.784 109.074C531.34 106.827 535.599 106.136 538.761 106.472L539.819 96.5281C534.413 95.9529 528.418 97.2214 522.034 99.8044C515.61 102.403 508.466 106.466 500.629 111.878L506.31 120.107ZM500.116 134.882C498.109 174.852 497.463 206.093 498.199 228.539L508.193 228.211C507.471 206.177 508.101 175.257 510.104 135.384L500.116 134.882ZM502.644 233.344L505.105 233.618L506.209 223.679L503.748 223.406L502.644 233.344ZM507.782 233.175C527.397 223.968 542.881 202.799 554.898 171.372L545.557 167.8C533.875 198.353 519.647 216.558 503.532 224.122L507.782 233.175ZM555.162 170.389L557.076 158.632L547.206 157.025L545.292 168.783L555.162 170.389ZM557.111 158.38L557.384 155.919L547.445 154.815L547.172 157.276L557.111 158.38ZM557.391 155.859C559.128 138.292 555.232 124.018 544.589 114.227L537.819 121.586C545.404 128.565 548.983 139.266 547.439 154.875L557.391 155.859ZM541.516 112.916L537.141 112.643L536.517 122.623L540.892 122.897L541.516 112.916ZM537.268 112.652C532.612 112.241 527.305 114.202 521.835 117.22C516.176 120.342 509.533 125.062 501.947 131.261L508.274 139.005C515.635 132.99 521.752 128.687 526.666 125.976C531.769 123.16 534.848 122.477 536.389 122.613L537.268 112.652ZM688.718 117.633L693.621 118.613C693.834 117.546 693.694 116.439 693.221 115.459L688.718 117.633ZM687.898 121.734L682.995 120.754C682.881 121.323 682.867 121.908 682.954 122.482L687.898 121.734ZM721.257 361.266L725.966 362.947C726.224 362.224 726.312 361.451 726.224 360.688L721.257 361.266ZM701.296 327.906L706.291 327.673C706.284 327.52 706.269 327.368 706.248 327.217L701.296 327.906ZM698.288 306.305L703.24 305.615C702.882 303.041 700.611 301.171 698.016 301.312L698.288 306.305ZM683.249 307.125V312.125C683.34 312.125 683.431 312.123 683.522 312.118L683.249 307.125ZM640.32 303.57L640.934 298.608C638.501 298.307 636.209 299.814 635.521 302.167L640.32 303.57ZM612.155 372.75L610.802 377.563C611.242 377.687 611.698 377.75 612.155 377.75V372.75ZM603.405 364L598.778 362.107C598.532 362.708 598.405 363.351 598.405 364H603.405ZM651.53 178.609L646.712 177.275C646.679 177.395 646.65 177.516 646.626 177.639L651.53 178.609ZM672.038 113.258L668.636 109.594C668.066 110.123 667.627 110.779 667.354 111.508L672.038 113.258ZM644.695 287.164L639.803 286.127C639.24 288.784 640.901 291.405 643.544 292.03L644.695 287.164ZM696.374 288.258L700.111 291.58C701.097 290.471 701.539 288.982 701.319 287.515L696.374 288.258ZM676.413 155.367L681.358 154.624C680.99 152.177 678.888 150.367 676.413 150.367V155.367ZM675.866 155.367V150.367C674.168 150.367 672.586 151.229 671.665 152.657L675.866 155.367ZM660.007 214.977L664.898 216.014C664.901 216 664.904 215.986 664.907 215.972L660.007 214.977ZM680.788 114.703C680.403 114.703 680.55 114.485 681.286 115.221C682.051 115.987 683.06 117.414 684.215 119.807L693.221 115.459C691.824 112.565 690.235 110.028 688.357 108.15C686.45 106.243 683.908 104.703 680.788 104.703V114.703ZM683.815 116.652L682.995 120.754L692.801 122.715L693.621 118.613L683.815 116.652ZM682.954 122.482C698.811 227.285 709.92 307.061 716.29 361.843L726.224 360.688C719.833 305.731 708.703 225.819 692.841 120.986L682.954 122.482ZM716.548 359.584C715.804 361.667 715.014 362.76 714.419 363.297C713.931 363.738 713.464 363.922 712.78 363.922V373.922C715.925 373.922 718.785 372.829 721.122 370.718C723.353 368.704 724.887 365.968 725.966 362.947L716.548 359.584ZM712.78 363.922C713.262 363.922 713.157 364.274 712.48 363.367C711.737 362.372 710.825 360.486 709.939 357.32C708.182 351.043 706.924 341.247 706.291 327.673L696.302 328.139C696.944 341.909 698.239 352.621 700.309 360.016C701.337 363.686 702.658 366.927 704.467 369.35C706.342 371.861 709.109 373.922 712.78 373.922V363.922ZM706.248 327.217L703.24 305.615L693.336 306.994L696.344 328.596L706.248 327.217ZM698.016 301.312L682.977 302.132L683.522 312.118L698.561 311.297L698.016 301.312ZM683.249 302.125C674.092 302.125 660.034 300.973 640.934 298.608L639.705 308.532C658.886 310.907 673.448 312.125 683.249 312.125V302.125ZM635.521 302.167C628.787 325.187 623.167 342.298 618.654 353.601C616.387 359.282 614.477 363.295 612.933 365.814C612.153 367.088 611.594 367.766 611.282 368.066C610.865 368.468 611.381 367.75 612.702 367.75V377.75C615.254 377.75 617.135 376.312 618.215 375.272C619.402 374.131 620.475 372.647 621.46 371.038C623.449 367.792 625.607 363.158 627.942 357.309C632.635 345.552 638.362 328.073 645.118 304.974L635.521 302.167ZM612.702 367.75H612.155V377.75H612.702V367.75ZM613.509 367.937C611.057 367.247 609.762 366.43 609.128 365.797C608.625 365.293 608.405 364.795 608.405 364H598.405C598.405 367.398 599.644 370.454 602.057 372.868C604.34 375.15 607.42 376.612 610.802 377.563L613.509 367.937ZM608.033 365.893C622.998 329.313 639.114 267.098 656.435 179.58L646.626 177.639C629.311 265.12 613.344 326.5 598.778 362.107L608.033 365.893ZM656.349 179.944C663.804 153.035 670.595 131.405 676.722 115.008L667.354 111.508C661.085 128.287 654.205 150.225 646.712 177.275L656.349 179.944ZM675.441 116.922C677.13 115.353 678.852 114.703 680.788 114.703V104.703C676.162 104.703 672.051 106.423 668.636 109.594L675.441 116.922ZM643.544 292.03C653.976 294.496 664.937 295.719 676.413 295.719V285.719C665.65 285.719 655.465 284.572 645.845 282.298L643.544 292.03ZM676.413 295.719H691.179V285.719H676.413V295.719ZM691.179 295.719C694.757 295.719 697.805 294.174 700.111 291.58L692.637 284.936C692.027 285.623 691.611 285.719 691.179 285.719V295.719ZM701.319 287.515L681.358 154.624L671.469 156.11L691.43 289.001L701.319 287.515ZM676.413 150.367H675.866V160.367H676.413V150.367ZM671.665 152.657C670.419 154.588 669.249 157.352 668.105 160.62C666.931 163.975 665.675 168.188 664.335 173.222C661.655 183.296 658.579 196.896 655.107 213.981L664.907 215.972C668.362 198.969 671.393 185.589 673.999 175.793C675.303 170.893 676.485 166.948 677.544 163.923C678.633 160.811 679.491 158.972 680.068 158.078L671.665 152.657ZM655.116 213.939L639.803 286.127L649.586 288.202L664.898 216.014L655.116 213.939ZM752.56 123.648V118.648C752.269 118.648 751.978 118.674 751.691 118.725L752.56 123.648ZM762.951 140.055L758.14 141.418C758.75 143.569 760.714 145.055 762.951 145.055V140.055ZM764.591 140.055V145.055C765.689 145.055 766.757 144.693 767.629 144.026L764.591 140.055ZM790.568 131.578V126.578C790.432 126.578 790.295 126.584 790.16 126.595L790.568 131.578ZM855.373 219.078L860.353 218.631C860.338 218.472 860.316 218.314 860.287 218.157L855.373 219.078ZM859.474 264.742H864.474C864.474 264.593 864.468 264.444 864.454 264.295L859.474 264.742ZM803.693 366.461L804.266 371.428C804.737 371.374 805.198 371.253 805.635 371.068L803.693 366.461ZM789.474 368.102V373.102C789.666 373.102 789.857 373.091 790.047 373.069L789.474 368.102ZM770.88 364L772.494 359.267C770.967 358.747 769.283 358.995 767.971 359.934C766.659 360.873 765.88 362.387 765.88 364H770.88ZM770.88 366.461H765.88C765.88 366.722 765.901 366.983 765.942 367.241L770.88 366.461ZM771.701 371.656H776.701C776.701 371.395 776.68 371.134 776.64 370.876L771.701 371.656ZM764.045 379.312V384.312C764.821 384.312 765.586 384.132 766.281 383.785L764.045 379.312ZM753.654 356.891H758.654C758.654 356.767 758.649 356.644 758.64 356.521L753.654 356.891ZM746.545 239.039L741.547 238.869C741.546 238.926 741.545 238.982 741.545 239.039H746.545ZM749.279 158.648L754.276 158.818C754.278 158.762 754.279 158.705 754.279 158.648H749.279ZM743.263 131.578H738.263C738.263 132.225 738.389 132.866 738.633 133.465L743.263 131.578ZM762.951 237.945L757.954 237.764C757.949 237.9 757.95 238.036 757.956 238.172L762.951 237.945ZM767.052 328.453L762.057 328.679C762.075 329.076 762.14 329.468 762.251 329.849L767.052 328.453ZM826.662 329.547L830.58 332.653C830.695 332.508 830.801 332.357 830.899 332.201L826.662 329.547ZM819.826 164.117L824.116 161.549C823.979 161.32 823.823 161.101 823.65 160.897L819.826 164.117ZM765.412 170.133L760.444 169.567C760.429 169.695 760.42 169.823 760.415 169.951L765.412 170.133ZM752.56 128.648C751.832 128.648 752.347 128.124 753.805 130.425C755.155 132.557 756.639 136.119 758.14 141.418L767.761 138.692C766.164 133.053 764.366 128.412 762.253 125.075C760.247 121.907 757.116 118.648 752.56 118.648V128.648ZM762.951 145.055H764.591V135.055H762.951V145.055ZM767.629 144.026C772.804 140.069 780.421 137.427 790.976 136.561L790.16 126.595C778.476 127.553 768.774 130.562 761.554 136.083L767.629 144.026ZM790.568 136.578C804.902 136.578 816.957 142.936 826.95 156.429C837.103 170.137 845.051 191.16 850.458 220L860.287 218.157C854.757 188.663 846.436 165.936 834.986 150.477C823.378 134.803 808.5 126.578 790.568 126.578V136.578ZM850.393 219.525L854.494 265.189L864.454 264.295L860.353 218.631L850.393 219.525ZM854.474 264.742C854.474 290.25 849.921 310.865 841.145 326.869C832.415 342.788 819.354 354.432 801.751 361.854L805.635 371.068C825.219 362.812 840.049 349.665 849.913 331.678C859.73 313.775 864.474 291.37 864.474 264.742H854.474ZM803.12 361.494L788.901 363.135L790.047 373.069L804.266 371.428L803.12 361.494ZM789.474 363.102H788.927V373.102H789.474V363.102ZM788.927 363.102C785.794 363.102 780.441 361.977 772.494 359.267L769.267 368.733C777.361 371.492 784.04 373.102 788.927 373.102V363.102ZM765.88 364V366.461H775.88V364H765.88ZM765.942 367.241L766.762 372.436L776.64 370.876L775.819 365.681L765.942 367.241ZM766.701 371.656C766.701 371.139 766.982 371.218 766.251 371.949C765.51 372.69 764.125 373.682 761.808 374.84L766.281 383.785C769.068 382.391 771.511 380.831 773.322 379.02C775.143 377.199 776.701 374.726 776.701 371.656H766.701ZM764.045 374.312C763.269 374.312 762.795 374.123 762.418 373.852C761.99 373.544 761.394 372.912 760.788 371.605C759.518 368.864 758.654 364.136 758.654 356.891H748.654C748.654 364.593 749.522 371.076 751.715 375.809C752.841 378.239 754.409 380.409 756.579 381.97C758.799 383.567 761.356 384.312 764.045 384.312V374.312ZM758.64 356.521C753.895 292.456 751.545 253.393 751.545 239.039H741.545C741.545 253.852 743.934 293.356 748.668 357.26L758.64 356.521ZM751.542 239.209L754.276 158.818L744.282 158.478L741.547 238.869L751.542 239.209ZM754.279 158.648C754.279 149.638 752.079 139.965 747.894 129.692L738.633 133.465C742.468 142.878 744.279 151.252 744.279 158.648H754.279ZM748.263 131.578C748.263 130.896 748.434 130.595 748.832 130.255C749.43 129.745 750.769 129.042 753.429 128.572L751.691 118.725C748.153 119.349 744.844 120.514 742.343 122.647C739.643 124.95 738.263 128.067 738.263 131.578H748.263ZM757.956 238.172L762.057 328.679L772.047 328.227L767.946 237.719L757.956 238.172ZM762.251 329.849C764.624 338.01 767.677 344.646 771.649 349.326C775.741 354.147 780.908 356.969 787.013 356.969V346.969C784.369 346.969 781.833 345.871 779.272 342.854C776.591 339.695 774.038 334.573 771.854 327.057L762.251 329.849ZM787.013 356.969H794.123V346.969H787.013V356.969ZM794.123 356.969C806.443 356.969 818.595 347.772 830.58 332.653L822.743 326.441C811.03 341.218 801.49 346.969 794.123 346.969V356.969ZM830.899 332.201C841.861 314.7 847.248 294.152 847.248 270.758H837.248C837.248 292.571 832.243 311.217 822.424 326.893L830.899 332.201ZM847.248 270.758V256.266H837.248V270.758H847.248ZM847.248 256.266C847.248 219.129 839.632 187.473 824.116 161.549L815.536 166.685C829.915 190.709 837.248 220.485 837.248 256.266H847.248ZM823.65 160.897C814.707 150.276 805.398 143.531 795.763 143.531V153.531C800.712 153.531 807.445 157.177 816.001 167.338L823.65 160.897ZM795.763 143.531H785.373V153.531H795.763V143.531ZM785.373 143.531C778.433 143.531 772.413 145.72 767.96 150.538C763.641 155.213 761.33 161.792 760.444 169.567L770.38 170.699C771.134 164.073 772.97 159.851 775.305 157.325C777.506 154.943 780.646 153.531 785.373 153.531V143.531ZM760.415 169.951L757.954 237.764L767.948 238.127L770.408 170.314L760.415 169.951ZM903.629 112.438V117.438C905.046 117.438 906.397 116.836 907.345 115.783C908.293 114.73 908.75 113.323 908.601 111.914L903.629 112.438ZM902.809 112.438V107.438C901.228 107.438 899.741 108.185 898.797 109.453C897.854 110.721 897.565 112.36 898.019 113.874L902.809 112.438ZM903.629 115.172L898.84 116.609C899.474 118.724 901.421 120.172 903.629 120.172V115.172ZM955.309 109.43L957.002 104.725C956.245 104.453 955.434 104.367 954.637 104.475L955.309 109.43ZM925.23 129.117L924.898 124.128C924.783 124.136 924.669 124.148 924.555 124.163L925.23 129.117ZM901.168 132.398L900.492 127.444C898.015 127.782 896.168 129.898 896.168 132.398H901.168ZM911.559 248.609L906.591 249.175C906.878 251.701 909.016 253.609 911.559 253.609V248.609ZM955.309 256.539H960.309C960.309 256.199 960.274 255.859 960.205 255.526L955.309 256.539ZM911.559 265.016V260.016C908.797 260.016 906.559 262.254 906.559 265.016H911.559ZM911.559 266.109L916.558 266.182C916.558 266.158 916.559 266.134 916.559 266.109H911.559ZM910.738 322.711L905.739 322.638C905.738 322.663 905.738 322.687 905.738 322.711H910.738ZM914.84 352.242L910.265 354.26C911.113 356.182 913.072 357.369 915.167 357.231L914.84 352.242ZM968.98 348.688L969.601 343.726C969.286 343.687 968.969 343.677 968.653 343.698L968.98 348.688ZM958.59 365.094V360.094C958.497 360.094 958.405 360.096 958.312 360.101L958.59 365.094ZM909.371 370.289V375.289C912.133 375.289 914.371 373.05 914.371 370.289H909.371ZM895.699 340.211L890.71 340.539C890.717 340.64 890.726 340.742 890.739 340.842L895.699 340.211ZM894.332 319.43L889.332 319.386C889.331 319.51 889.335 319.634 889.343 319.758L894.332 319.43ZM894.879 257.359L899.879 257.403C899.88 257.24 899.874 257.076 899.859 256.913L894.879 257.359ZM884.762 144.43H879.762C879.762 144.579 879.768 144.727 879.782 144.876L884.762 144.43ZM895.699 107.047C896.502 107.047 896.799 107.251 897.125 107.678C897.65 108.366 898.336 109.915 898.656 112.961L908.601 111.914C908.193 108.033 907.192 104.386 905.074 101.611C902.757 98.575 899.453 97.0469 895.699 97.0469V107.047ZM903.629 107.438H902.809V117.438H903.629V107.438ZM898.019 113.874L898.84 116.609L908.418 113.735L907.598 111.001L898.019 113.874ZM903.629 120.172C910.248 120.172 927.881 118.191 955.98 114.384L954.637 104.475C926.226 108.324 909.406 110.172 903.629 110.172V120.172ZM953.615 114.134C955.311 114.745 956.141 115.42 956.543 115.918C956.89 116.347 957.145 116.916 957.145 117.906H967.145C967.145 114.886 966.26 112.037 964.328 109.641C962.451 107.313 959.863 105.755 957.002 104.725L953.615 114.134ZM957.145 117.906C957.145 117.338 957.529 117.35 956.768 117.941C955.926 118.596 954.284 119.443 951.463 120.3C945.87 121.998 937.102 123.315 924.898 124.128L925.563 134.106C937.969 133.279 947.657 131.907 954.369 129.868C957.7 128.856 960.673 127.573 962.907 125.835C965.222 124.034 967.145 121.391 967.145 117.906H957.145ZM924.555 124.163L900.492 127.444L901.844 137.353L925.906 134.071L924.555 124.163ZM896.168 132.398V144.43H906.168V132.398H896.168ZM896.168 144.43C896.168 153.364 899.687 188.492 906.591 249.175L916.527 248.044C909.576 186.956 906.168 152.631 906.168 144.43H896.168ZM911.559 253.609H946.559V243.609H911.559V253.609ZM946.559 253.609C947.954 253.609 948.585 253.972 948.943 254.297C949.372 254.685 950.002 255.569 950.412 257.552L960.205 255.526C959.521 252.223 958.146 249.142 955.658 246.887C953.1 244.568 949.903 243.609 946.559 243.609V253.609ZM950.309 256.539C950.309 257.885 949.922 258.341 949.343 258.723C948.399 259.345 946.35 260.016 942.457 260.016V270.016C947.132 270.016 951.508 269.274 954.849 267.07C958.553 264.627 960.309 260.844 960.309 256.539H950.309ZM942.457 260.016H911.559V270.016H942.457V260.016ZM906.559 265.016V266.109H916.559V265.016H906.559ZM906.559 266.037L905.739 322.638L915.738 322.783L916.558 266.182L906.559 266.037ZM905.738 322.711C905.738 336.342 907.09 347.064 910.265 354.26L919.414 350.224C917.12 345.024 915.738 336.059 915.738 322.711H905.738ZM915.167 357.231L969.308 353.677L968.653 343.698L914.512 347.253L915.167 357.231ZM968.36 353.649C970.765 353.95 971.839 354.551 972.25 354.911C972.477 355.11 972.73 355.391 972.73 356.344H982.73C982.73 352.922 981.526 349.739 978.836 347.386C976.33 345.194 973.029 344.155 969.601 343.726L968.36 353.649ZM972.73 356.344C972.73 356.83 972.619 357.055 972.494 357.226C972.33 357.451 971.906 357.884 970.867 358.359C968.664 359.366 964.746 360.094 958.59 360.094V370.094C965.194 370.094 970.847 369.363 975.024 367.454C977.175 366.47 979.143 365.08 980.574 363.118C982.045 361.101 982.73 358.774 982.73 356.344H972.73ZM958.312 360.101C941.888 361.014 929.482 361.908 921.151 362.787C917.011 363.224 913.738 363.672 911.441 364.144C910.331 364.372 909.204 364.654 908.261 365.036C907.815 365.217 907.107 365.539 906.427 366.087C905.83 366.567 904.371 367.952 904.371 370.289H914.371C914.371 372.421 913.041 373.6 912.7 373.874C912.463 374.065 912.268 374.177 912.176 374.227C912.124 374.255 912.084 374.274 912.06 374.285C912.035 374.297 912.021 374.302 912.019 374.303C912.018 374.303 912.049 374.291 912.121 374.268C912.191 374.245 912.287 374.216 912.415 374.181C912.672 374.111 913.014 374.029 913.454 373.939C915.258 373.568 918.138 373.161 922.201 372.732C930.276 371.88 942.48 370.996 958.867 370.086L958.312 360.101ZM909.371 365.289C909.166 365.289 907.645 365.236 905.583 360.701C903.618 356.376 901.915 349.45 900.659 339.58L890.739 340.842C892.035 351.024 893.888 359.137 896.479 364.839C898.975 370.329 903.014 375.289 909.371 375.289V365.289ZM900.688 339.883L899.321 319.101L889.343 319.758L890.71 340.539L900.688 339.883ZM899.332 319.474L899.879 257.403L889.879 257.315L889.332 319.386L899.332 319.474ZM899.859 256.913L889.742 143.984L879.782 144.876L889.899 257.806L899.859 256.913ZM889.762 144.43V135.953H879.762V144.43H889.762ZM889.762 135.953C889.762 124.778 890.609 116.891 892.082 111.953C892.82 109.481 893.602 108.145 894.178 107.501C894.625 107.001 894.8 107.047 894.879 107.047V97.0469C891.585 97.0469 888.809 98.5054 886.727 100.831C884.774 103.013 883.448 105.915 882.5 109.094C880.601 115.458 879.762 124.524 879.762 135.953H889.762ZM894.879 107.047H895.699V97.0469H894.879V107.047ZM1048.14 109.43V104.43C1047.85 104.43 1047.57 104.454 1047.29 104.501L1048.14 109.43ZM1086.96 142.242L1082.24 143.894C1082.31 144.094 1082.4 144.289 1082.49 144.478L1086.96 142.242ZM1080.13 159.469V164.469C1080.29 164.469 1080.45 164.461 1080.61 164.446L1080.13 159.469ZM1070.83 141.422L1075.8 140.895C1075.73 140.175 1075.49 139.481 1075.12 138.86L1070.83 141.422ZM1026.53 158.648L1021.55 158.192C1021.54 158.344 1021.53 158.496 1021.53 158.648H1026.53ZM1076.57 278.414L1081.02 276.13C1080.95 276.001 1080.88 275.875 1080.81 275.752L1076.57 278.414ZM1063.72 372.477L1064.57 377.405C1065.1 377.313 1065.61 377.136 1066.09 376.879L1063.72 372.477ZM1054.15 374.117V379.117C1054.43 379.117 1054.72 379.093 1055 379.045L1054.15 374.117ZM1006.03 339.664L1001.68 342.145C1001.74 342.244 1001.8 342.342 1001.87 342.438L1006.03 339.664ZM1011.22 307.672V302.672C1010.94 302.672 1010.66 302.696 1010.38 302.744L1011.22 307.672ZM1013.68 307.672L1016.5 303.541C1015.67 302.975 1014.69 302.672 1013.68 302.672V307.672ZM1019.7 315.328L1024.59 316.341C1024.66 316.008 1024.7 315.668 1024.7 315.328H1019.7ZM1018.06 323.258L1013.16 322.245C1013.09 322.578 1013.06 322.917 1013.06 323.258H1018.06ZM1047.31 356.617L1045.03 361.064C1045.43 361.268 1045.85 361.418 1046.28 361.51L1047.31 356.617ZM1052.51 357.711L1051.48 362.604C1051.82 362.675 1052.16 362.711 1052.51 362.711V357.711ZM1075.75 333.375L1080.58 334.677C1080.69 334.252 1080.75 333.815 1080.75 333.375H1075.75ZM1037.74 243.961L1033.29 246.224C1033.38 246.402 1033.48 246.574 1033.59 246.739L1037.74 243.961ZM1036.92 111.344L1036.08 106.415C1035.58 106.501 1035.09 106.665 1034.63 106.899L1036.92 111.344ZM1048.14 114.43C1056.16 114.43 1062.79 116.806 1068.29 121.452C1073.87 126.17 1078.61 133.502 1082.24 143.894L1091.68 140.59C1087.66 129.108 1082.1 120.033 1074.74 113.814C1067.3 107.522 1058.33 104.43 1048.14 104.43V114.43ZM1082.49 144.478C1083.07 145.642 1083.6 147.915 1083.6 151.812H1093.6C1093.6 147.324 1093.04 143.218 1091.44 140.006L1082.49 144.478ZM1083.6 151.812C1083.6 152.98 1083.29 153.292 1083.13 153.434C1082.82 153.715 1081.9 154.274 1079.65 154.492L1080.61 164.446C1084 164.117 1087.32 163.126 1089.84 160.855C1092.5 158.445 1093.6 155.202 1093.6 151.812H1083.6ZM1080.13 154.469C1080 154.469 1079.93 154.457 1079.78 154.341C1079.55 154.172 1079.1 153.723 1078.56 152.667C1077.43 150.483 1076.42 146.702 1075.8 140.895L1065.86 141.949C1066.52 148.173 1067.69 153.416 1069.67 157.247C1071.7 161.202 1075.11 164.469 1080.13 164.469V154.469ZM1075.12 138.86C1068.58 127.885 1060.33 120.836 1050.05 120.836V130.836C1055.08 130.836 1060.69 134.177 1066.54 143.983L1075.12 138.86ZM1050.05 120.836H1046.22V130.836H1050.05V120.836ZM1046.22 120.836C1038.62 120.836 1032.7 124.755 1028.67 131.467C1024.82 137.887 1022.58 146.973 1021.55 158.192L1031.51 159.105C1032.49 148.449 1034.54 141.128 1037.25 136.612C1039.78 132.386 1042.7 130.836 1046.22 130.836V120.836ZM1021.53 158.648V159.469H1031.53V158.648H1021.53ZM1021.53 159.469C1021.53 173.551 1025.98 190.736 1034.43 210.831C1042.92 230.991 1055.57 254.416 1072.34 281.076L1080.81 275.752C1064.21 249.365 1051.85 226.442 1043.65 206.954C1035.43 187.401 1031.53 171.636 1031.53 159.469H1021.53ZM1072.12 280.698C1082.36 300.638 1087.16 316.757 1087.16 329.273H1097.16C1097.16 314.446 1091.56 296.659 1081.02 276.13L1072.12 280.698ZM1087.16 329.273C1087.16 345.701 1079 358.571 1061.35 368.074L1066.09 376.879C1086.36 365.965 1097.16 350.034 1097.16 329.273H1087.16ZM1062.88 367.548L1053.31 369.189L1055 379.045L1064.57 377.405L1062.88 367.548ZM1054.15 369.117C1039.91 369.117 1025.18 359.383 1010.19 336.891L1001.87 342.438C1017.5 365.883 1034.85 379.117 1054.15 379.117V369.117ZM1010.37 337.183C1007.88 332.829 1006.65 328.214 1006.65 323.258H996.651C996.651 329.968 998.34 336.291 1001.68 342.145L1010.37 337.183ZM1006.65 323.258C1006.65 319.085 1007.38 316.505 1008.3 315.005C1009.1 313.717 1010.19 312.921 1012.07 312.6L1010.38 302.744C1005.87 303.517 1002.18 305.865 999.782 309.772C997.514 313.467 996.651 318.134 996.651 323.258H1006.65ZM1011.22 312.672H1013.68V302.672H1011.22V312.672ZM1010.87 311.803C1012.64 313.01 1013.69 313.999 1014.26 314.726C1014.83 315.443 1014.7 315.614 1014.7 315.328H1024.7C1024.7 312.673 1023.57 310.383 1022.13 308.548C1020.69 306.723 1018.74 305.068 1016.5 303.541L1010.87 311.803ZM1014.8 314.315L1013.16 322.245L1022.95 324.271L1024.59 316.341L1014.8 314.315ZM1013.06 323.258V323.805H1023.06V323.258H1013.06ZM1013.06 323.805C1013.06 338.72 1025.29 350.916 1045.03 361.064L1049.6 352.17C1030.33 342.266 1023.06 332.587 1023.06 323.805H1013.06ZM1046.28 361.51L1051.48 362.604L1053.54 352.818L1048.34 351.724L1046.28 361.51ZM1052.51 362.711H1054.97V352.711H1052.51V362.711ZM1054.97 362.711C1061.37 362.711 1066.8 359.886 1071.08 354.874C1075.22 350.021 1078.3 343.136 1080.58 334.677L1070.92 332.073C1068.83 339.838 1066.26 345.12 1063.47 348.38C1060.83 351.48 1058.05 352.711 1054.97 352.711V362.711ZM1080.75 333.375V330.094H1070.75V333.375H1080.75ZM1080.75 330.094C1080.75 319.35 1077.29 306.562 1070.82 291.913C1064.33 277.204 1054.67 260.284 1041.9 241.183L1033.59 246.739C1046.16 265.554 1055.5 281.949 1061.68 295.95C1067.88 310.012 1070.75 321.332 1070.75 330.094H1080.75ZM1042.2 241.698C1024.05 205.933 1015.4 178.651 1015.4 159.469H1005.4C1005.4 181.12 1014.98 210.166 1033.29 246.224L1042.2 241.698ZM1015.4 159.469C1015.4 148.618 1017.49 139.741 1021.41 132.624C1025.31 125.548 1031.18 119.932 1039.22 115.788L1034.63 106.899C1024.99 111.871 1017.59 118.832 1012.65 127.798C1007.73 136.722 1005.4 147.351 1005.4 159.469H1015.4ZM1037.77 116.272L1048.98 114.358L1047.29 104.501L1036.08 106.415L1037.77 116.272Z" fill="#F2F2F2" mask="url(#path-1-outside-1_60_37)"/>
</g>
<defs>
<filter id="filter0_d_60_37" x="0.849121" y="0.132812" width="1191.31" height="485.195" filterUnits="userSpaceOnUse" color-interpolation-filters="sRGB">
<feFlood flood-opacity="0" result="BackgroundImageFix"/>
<feColorMatrix in="SourceAlpha" type="matrix" values="0 0 0 0 0 0 0 0 0 0 0 0 0 0 0 0 0 0 127 0" result="hardAlpha"/>
<feOffset/>
<feGaussianBlur stdDeviation="50"/>
<feComposite in2="hardAlpha" operator="out"/>
<feColorMatrix type="matrix" values="0 0 0 0 1 0 0 0 0 1 0 0 0 0 1 0 0 0 0.3 0"/>
<feBlend mode="normal" in2="BackgroundImageFix" result="effect1_dropShadow_60_37"/>
<feBlend mode="normal" in="SourceGraphic" in2="effect1_dropShadow_60_37" result="shape"/>
</filter>
</defs>
</svg>
