<svg width="21" height="16" viewBox="0 0 21 16" fill="none" xmlns="http://www.w3.org/2000/svg">
<path d="M16.7454 15.83H3.63536C3.35481 15.8313 3.07675 15.7772 2.81717 15.6707C2.5576 15.5643 2.3216 15.4076 2.12276 15.2097C1.92391 15.0118 1.76612 14.7765 1.65845 14.5174C1.55078 14.2583 1.49536 13.9805 1.49536 13.7V5.07999C1.49795 4.88188 1.5778 4.69262 1.7179 4.55252C1.85799 4.41243 2.04725 4.33258 2.24536 4.32999H18.0754C18.2743 4.32999 18.465 4.409 18.6057 4.54966C18.7463 4.69031 18.8254 4.88107 18.8254 5.07999V13.7C18.8255 14.2563 18.608 14.7907 18.2193 15.1887C17.8306 15.5868 17.3016 15.8169 16.7454 15.83V15.83ZM3.04536 5.82999V13.7C3.04799 13.868 3.11657 14.0282 3.23631 14.1461C3.35605 14.264 3.51734 14.33 3.68536 14.33H16.7454C16.9124 14.33 17.0727 14.2636 17.1908 14.1455C17.309 14.0273 17.3754 13.8671 17.3754 13.7V5.82999H3.04536Z" fill="#1CA1D0"/>
<path d="M13.0054 10.83C12.8065 10.83 12.6157 10.751 12.475 10.6103C12.3344 10.4697 12.2554 10.2789 12.2554 10.08V5.21998L10.8954 1.66998H1.06537L2.88537 4.66998C2.94703 4.75405 2.99049 4.85005 3.01297 4.95185C3.03545 5.05365 3.03646 5.15902 3.01593 5.26124C2.9954 5.36346 2.95379 5.46027 2.89375 5.5455C2.83371 5.63073 2.75656 5.70251 2.66722 5.75625C2.57788 5.80999 2.47832 5.84452 2.3749 5.85762C2.27147 5.87073 2.16644 5.86213 2.06652 5.83237C1.96661 5.80261 1.87399 5.75234 1.79459 5.68478C1.71518 5.61722 1.65074 5.53385 1.60537 5.43998L-0.894634 1.29998C-0.963544 1.18704 -1 1.05729 -1 0.924983C-1 0.792676 -0.963544 0.662928 -0.894634 0.549983C-0.831848 0.435062 -0.739304 0.339146 -0.626702 0.272289C-0.514101 0.205432 -0.385588 0.170095 -0.254634 0.169983H11.4154C11.5669 0.169925 11.7148 0.215754 11.8398 0.301436C11.9648 0.387118 12.0608 0.508634 12.1154 0.649983L13.7454 4.80998C13.7811 4.8954 13.7981 4.98745 13.7954 5.07998V10.08C13.797 10.1824 13.7773 10.2839 13.7377 10.3783C13.698 10.4727 13.6392 10.5579 13.565 10.6283C13.4907 10.6988 13.4026 10.7532 13.3063 10.7879C13.21 10.8226 13.1075 10.8369 13.0054 10.83V10.83Z" fill="#1CA1D0"/>
<path d="M18.0754 5.82999H13.0754C12.9528 5.83065 12.8319 5.80084 12.7237 5.74324C12.6155 5.68564 12.5233 5.60205 12.4554 5.49999C12.3848 5.39905 12.3413 5.28168 12.3291 5.15913C12.3168 5.03657 12.3362 4.91292 12.3854 4.79999L14.0454 0.639995C14.1015 0.500516 14.1983 0.381126 14.3231 0.297317C14.4479 0.213508 14.595 0.169148 14.7454 0.169995H19.7454C19.868 0.169339 19.9888 0.199151 20.097 0.256752C20.2052 0.314352 20.2975 0.397937 20.3654 0.499995C20.435 0.601197 20.4787 0.717959 20.4927 0.840016C20.5066 0.962073 20.4904 1.08569 20.4454 1.19999L18.7454 5.35999C18.6923 5.49555 18.6004 5.61245 18.4813 5.69605C18.3621 5.77965 18.2209 5.82624 18.0754 5.82999V5.82999ZM14.1854 4.32999H17.5754L18.6354 1.66999H15.2554L14.1854 4.32999Z" fill="#1CA1D0"/>
</svg>
