<svg width="21" height="18" viewBox="0 0 21 18" fill="none" xmlns="http://www.w3.org/2000/svg">
<path d="M16.93 18C14.06 18 12.56 15.33 12.05 14.18H8.94999C8.43999 15.37 6.93999 18 4.06999 18C0.179993 18 0.179993 14.73 0.179993 13.34C0.179993 11.65 2.87999 6.34 3.41999 5.34C3.49263 5.23013 3.59258 5.14102 3.71004 5.08142C3.8275 5.02181 3.95843 4.99376 4.08999 5H16.91C17.0484 5.00084 17.184 5.03948 17.3021 5.11173C17.4201 5.18399 17.5162 5.28712 17.58 5.41C18.12 6.41 20.82 11.73 20.82 13.41C20.82 14.77 20.82 18 16.93 18ZM8.43999 12.72H12.56C12.7172 12.7186 12.8707 12.7673 12.9984 12.859C13.126 12.9506 13.2211 13.0806 13.27 13.23C13.27 13.23 14.43 16.54 16.93 16.54C19.15 16.54 19.32 15.23 19.32 13.38C19.32 12.46 17.71 8.92 16.45 6.46H4.54999C3.28999 8.92 1.67999 12.46 1.67999 13.38C1.67999 15.23 1.84999 16.54 4.06999 16.54C6.56999 16.54 7.71999 13.26 7.72999 13.23C7.77884 13.0806 7.87398 12.9506 8.00164 12.859C8.12929 12.7673 8.28282 12.7186 8.43999 12.72V12.72Z" fill="#78828A"/>
<path d="M10.5 6.45999C10.3248 6.46073 10.1549 6.40013 10.0198 6.28871C9.88459 6.17729 9.79269 6.02208 9.75999 5.84999C9.66026 5.20465 9.69026 4.5459 9.84823 3.9123C10.0062 3.2787 10.289 2.68297 10.68 2.15999C11.2217 1.58538 11.8862 1.1404 12.6237 0.858186C13.3613 0.575967 14.153 0.463783 14.94 0.529986C15.0385 0.529986 15.136 0.549385 15.227 0.587076C15.318 0.624767 15.4007 0.680012 15.4703 0.749656C15.54 0.8193 15.5952 0.901979 15.6329 0.992973C15.6706 1.08397 15.69 1.18149 15.69 1.27999C15.69 1.37848 15.6706 1.476 15.6329 1.567C15.5952 1.65799 15.54 1.74067 15.4703 1.81032C15.4007 1.87996 15.318 1.9352 15.227 1.9729C15.136 2.01059 15.0385 2.02999 14.94 2.02999C14.3757 1.97249 13.8057 2.03939 13.2701 2.22599C12.7345 2.41258 12.2464 2.71433 11.84 3.10999C11.3291 3.82522 11.1142 4.71009 11.24 5.57999C11.2572 5.67718 11.2551 5.77683 11.2338 5.87321C11.2125 5.96959 11.1723 6.06081 11.1156 6.14164C11.059 6.22247 10.9869 6.29131 10.9035 6.34422C10.8202 6.39714 10.7272 6.43308 10.63 6.44999L10.5 6.45999Z" fill="#78828A"/>
</svg>
