<svg width="20" height="20" viewBox="0 0 20 20" fill="none" xmlns="http://www.w3.org/2000/svg">
<path d="M17.15 9.25999H2.15C1.63894 9.25737 1.14957 9.05318 0.788188 8.69181C0.426811 8.33043 0.222629 7.84105 0.220001 7.32999V2.32999C0.222629 1.81894 0.426811 1.32956 0.788188 0.968181C1.14957 0.606804 1.63894 0.402621 2.15 0.399994H17.15C17.6611 0.402621 18.1504 0.606804 18.5118 0.968181C18.8732 1.32956 19.0774 1.81894 19.08 2.32999V7.32999C19.0774 7.84105 18.8732 8.33043 18.5118 8.69181C18.1504 9.05318 17.6611 9.25737 17.15 9.25999ZM2.15 1.89999C2.03676 1.90254 1.92886 1.94866 1.84876 2.02876C1.76867 2.10885 1.72255 2.21675 1.72 2.32999V7.32999C1.72 7.44404 1.7653 7.55341 1.84595 7.63405C1.92659 7.71469 2.03596 7.75999 2.15 7.75999H17.15C17.264 7.75999 17.3734 7.71469 17.4541 7.63405C17.5347 7.55341 17.58 7.44404 17.58 7.32999V2.32999C17.58 2.21595 17.5347 2.10658 17.4541 2.02594C17.3734 1.9453 17.264 1.89999 17.15 1.89999H2.15Z" fill="white"/>
<path d="M17.15 19.6H2.15C1.63894 19.5974 1.14957 19.3932 0.788188 19.0318C0.426811 18.6704 0.222629 18.181 0.220001 17.67V12.67C0.222629 12.1589 0.426811 11.6696 0.788188 11.3082C1.14957 10.9468 1.63894 10.7426 2.15 10.74H17.15C17.6611 10.7426 18.1504 10.9468 18.5118 11.3082C18.8732 11.6696 19.0774 12.1589 19.08 12.67V17.67C19.0774 18.181 18.8732 18.6704 18.5118 19.0318C18.1504 19.3932 17.6611 19.5974 17.15 19.6ZM2.15 12.24C2.03596 12.24 1.92659 12.2853 1.84595 12.3659C1.7653 12.4466 1.72 12.5559 1.72 12.67V17.67C1.72255 17.7832 1.76867 17.8911 1.84876 17.9712C1.92886 18.0513 2.03676 18.0974 2.15 18.1H17.15C17.264 18.1 17.3734 18.0547 17.4541 17.974C17.5347 17.8934 17.58 17.784 17.58 17.67V12.67C17.58 12.5559 17.5347 12.4466 17.4541 12.3659C17.3734 12.2853 17.264 12.24 17.15 12.24H2.15Z" fill="white"/>
</svg>
