<svg width="20" height="20" viewBox="0 0 20 20" fill="none" xmlns="http://www.w3.org/2000/svg">
<path d="M7.15 9.25999H2.15C1.63894 9.25737 1.14957 9.05318 0.788188 8.69181C0.426811 8.33043 0.222629 7.84105 0.220001 7.32999V2.32999C0.222629 1.81894 0.426811 1.32956 0.788188 0.968181C1.14957 0.606804 1.63894 0.402621 2.15 0.399994H7.15C7.66106 0.402621 8.15044 0.606804 8.51181 0.968181C8.87319 1.32956 9.07737 1.81894 9.08 2.32999V7.32999C9.07737 7.84105 8.87319 8.33043 8.51181 8.69181C8.15044 9.05318 7.66106 9.25737 7.15 9.25999ZM2.15 1.89999C2.03676 1.90254 1.92886 1.94866 1.84876 2.02876C1.76867 2.10885 1.72255 2.21675 1.72 2.32999V7.32999C1.72 7.44404 1.7653 7.55341 1.84595 7.63405C1.92659 7.71469 2.03596 7.75999 2.15 7.75999H7.15C7.26404 7.75999 7.37342 7.71469 7.45406 7.63405C7.5347 7.55341 7.58 7.44404 7.58 7.32999V2.32999C7.58 2.21595 7.5347 2.10658 7.45406 2.02594C7.37342 1.9453 7.26404 1.89999 7.15 1.89999H2.15Z" fill="white"/>
<path d="M17.85 9.25999H12.85C12.339 9.25737 11.8496 9.05318 11.4882 8.69181C11.1268 8.33043 10.9226 7.84105 10.92 7.32999V2.32999C10.9226 1.81894 11.1268 1.32956 11.4882 0.968181C11.8496 0.606804 12.339 0.402621 12.85 0.399994H17.85C18.3611 0.402621 18.8504 0.606804 19.2118 0.968181C19.5732 1.32956 19.7774 1.81894 19.78 2.32999V7.32999C19.7774 7.84105 19.5732 8.33043 19.2118 8.69181C18.8504 9.05318 18.3611 9.25737 17.85 9.25999ZM12.85 1.89999C12.736 1.89999 12.6266 1.9453 12.546 2.02594C12.4653 2.10658 12.42 2.21595 12.42 2.32999V7.32999C12.42 7.44404 12.4653 7.55341 12.546 7.63405C12.6266 7.71469 12.736 7.75999 12.85 7.75999H17.85C17.9641 7.75999 18.0734 7.71469 18.1541 7.63405C18.2347 7.55341 18.28 7.44404 18.28 7.32999V2.32999C18.28 2.21595 18.2347 2.10658 18.1541 2.02594C18.0734 1.9453 17.9641 1.89999 17.85 1.89999H12.85Z" fill="white"/>
<path d="M7.15 19.6H2.15C1.63894 19.5974 1.14957 19.3932 0.788188 19.0318C0.426811 18.6704 0.222629 18.181 0.220001 17.67V12.67C0.222629 12.1589 0.426811 11.6696 0.788188 11.3082C1.14957 10.9468 1.63894 10.7426 2.15 10.74H7.15C7.66106 10.7426 8.15044 10.9468 8.51181 11.3082C8.87319 11.6696 9.07737 12.1589 9.08 12.67V17.67C9.07737 18.181 8.87319 18.6704 8.51181 19.0318C8.15044 19.3932 7.66106 19.5974 7.15 19.6ZM2.15 12.24C2.03596 12.24 1.92659 12.2853 1.84595 12.3659C1.7653 12.4466 1.72 12.5559 1.72 12.67V17.67C1.72255 17.7832 1.76867 17.8911 1.84876 17.9712C1.92886 18.0513 2.03676 18.0974 2.15 18.1H7.15C7.26404 18.1 7.37342 18.0547 7.45406 17.974C7.5347 17.8934 7.58 17.784 7.58 17.67V12.67C7.58 12.5559 7.5347 12.4466 7.45406 12.3659C7.37342 12.2853 7.26404 12.24 7.15 12.24H2.15Z" fill="white"/>
<path d="M17.85 19.6H12.85C12.339 19.5974 11.8496 19.3932 11.4882 19.0318C11.1268 18.6704 10.9226 18.181 10.92 17.67V12.67C10.9226 12.1589 11.1268 11.6696 11.4882 11.3082C11.8496 10.9468 12.339 10.7426 12.85 10.74H17.85C18.3611 10.7426 18.8504 10.9468 19.2118 11.3082C19.5732 11.6696 19.7774 12.1589 19.78 12.67V17.67C19.7774 18.181 19.5732 18.6704 19.2118 19.0318C18.8504 19.3932 18.3611 19.5974 17.85 19.6ZM12.85 12.24C12.736 12.24 12.6266 12.2853 12.546 12.3659C12.4653 12.4466 12.42 12.5559 12.42 12.67V17.67C12.42 17.784 12.4653 17.8934 12.546 17.974C12.6266 18.0547 12.736 18.1 12.85 18.1H17.85C17.9641 18.1 18.0734 18.0547 18.1541 17.974C18.2347 17.8934 18.28 17.784 18.28 17.67V12.67C18.28 12.5559 18.2347 12.4466 18.1541 12.3659C18.0734 12.2853 17.9641 12.24 17.85 12.24H12.85Z" fill="white"/>
</svg>
